<?xml version="1.0" standalone="no"?>
<!DOCTYPE svg PUBLIC "-//W3C//DTD SVG 20010904//EN"
 "http://www.w3.org/TR/2001/REC-SVG-20010904/DTD/svg10.dtd">
<svg version="1.0" xmlns="http://www.w3.org/2000/svg"
 width="348.000000pt" height="348.000000pt" viewBox="0 0 348.000000 348.000000"
 preserveAspectRatio="xMidYMid meet">
<metadata>
Created by potrace 1.14, written by Peter Selinger 2001-2017
</metadata>
<g transform="translate(0.000000,348.000000) scale(0.100000,-0.100000)"
fill="#000000" stroke="none">
<path d="M2210 3464 c-146 -30 -273 -98 -377 -201 -63 -62 -113 -125 -113
-142 0 -6 -3 -11 -8 -11 -8 0 -53 -98 -79 -175 -14 -43 -17 -110 -20 -497 l-4
-448 399 0 c317 0 417 3 480 15 229 44 422 187 524 388 59 117 77 195 77 338
0 147 -18 227 -73 338 -98 194 -277 335 -495 391 -66 17 -237 19 -311 4z"/>
<path d="M898 3095 c-2 -2 -23 -5 -48 -8 -144 -17 -307 -127 -385 -261 -55
-94 -73 -163 -73 -274 0 -197 64 -332 215 -450 43 -33 148 -86 199 -98 16 -4
176 -9 357 -11 l328 -4 -1 314 c-1 325 -5 366 -47 462 -46 107 -148 216 -248
268 -59 30 -160 57 -227 60 -37 2 -69 3 -70 2z"/>
<path d="M917 1873 c-1 0 -24 -3 -52 -6 -213 -22 -421 -210 -465 -421 -7 -36
-10 -208 -8 -537 3 -438 5 -487 21 -518 9 -19 17 -39 17 -46 0 -7 18 -40 40
-73 159 -246 456 -328 719 -199 88 43 195 150 238 237 63 126 61 109 62 870
l1 695 -286 0 c-157 0 -286 -1 -287 -2z"/>
<path d="M1613 1866 c-6 -9 -5 -600 0 -626 2 -8 7 -33 12 -55 9 -48 56 -147
93 -195 77 -101 207 -184 330 -210 254 -53 521 87 619 325 53 130 57 284 9
409 -70 185 -247 329 -431 352 -86 10 -626 11 -632 0z"/>
</g>
</svg>
