<svg width="32" height="35" viewBox="0 0 32 35" fill="none" xmlns="http://www.w3.org/2000/svg">
<path d="M26.25 0H5.25C2.345 0 0 2.3275 0 5.1975V24.29C0 27.16 2.345 29.4875 5.25 29.4875H6.58C7.98 29.4875 9.31 30.03 10.29 31.01L13.2825 33.9675C14.6475 35.315 16.87 35.315 18.235 33.9675L21.2275 31.01C22.2075 30.03 23.555 29.4875 24.9375 29.4875H26.25C29.155 29.4875 31.5 27.16 31.5 24.29V5.1975C31.5 2.3275 29.155 0 26.25 0ZM12.915 19.2675C13.6325 19.2675 14.2275 19.8625 14.2275 20.58C14.2275 21.2975 13.6325 21.8925 12.915 21.8925H8.225C7.455 21.8925 6.7375 21.525 6.2825 20.895C5.845 20.3 5.74 19.565 5.95 18.865C6.5625 16.9925 8.0675 15.9775 9.3975 15.0675C10.7975 14.1225 11.585 13.5275 11.585 12.5125C11.585 11.6025 10.85 10.8675 9.94 10.8675C9.03 10.8675 8.3125 11.62 8.3125 12.53C8.3125 13.2475 7.7175 13.8425 7 13.8425C6.2825 13.8425 5.6875 13.2475 5.6875 12.53C5.6875 10.185 7.595 8.26 9.9575 8.26C12.32 8.26 14.2275 10.1675 14.2275 12.53C14.2275 14.9975 12.3725 16.2575 10.885 17.2725C9.9575 17.9025 9.0825 18.4975 8.645 19.285H12.915V19.2675ZM24.5 19.39H24.1325V20.5975C24.1325 21.315 23.5375 21.91 22.82 21.91C22.1025 21.91 21.5075 21.315 21.5075 20.5975V19.39H18.0775C18.0775 19.39 18.0775 19.39 18.06 19.39C17.2025 19.39 16.415 18.935 15.9775 18.2C15.54 17.4475 15.54 16.52 15.9775 15.785C17.1675 13.7375 18.55 11.41 19.81 9.38C20.37 8.4875 21.4375 8.085 22.435 8.365C23.4325 8.6625 24.1325 9.5725 24.115 10.6225V16.7825H24.5C25.2175 16.7825 25.8125 17.3775 25.8125 18.095C25.8125 18.8125 25.2175 19.39 24.5 19.39Z" fill="url(#paint0_linear)"/>
<path d="M21.5073 16.765V11.62C20.4748 13.3 19.4073 15.1025 18.4448 16.7475H21.5073V16.765Z" fill="url(#paint1_linear)"/>
<defs>
<linearGradient id="paint0_linear" x1="15.75" y1="0" x2="15.75" y2="34.9781" gradientUnits="userSpaceOnUse">
<stop stop-color="#48EDFF"/>
<stop offset="1" stop-color="#0C8EFF"/>
</linearGradient>
<linearGradient id="paint1_linear" x1="19.9761" y1="11.62" x2="19.9761" y2="16.765" gradientUnits="userSpaceOnUse">
<stop stop-color="#48EDFF"/>
<stop offset="1" stop-color="#0C8EFF"/>
</linearGradient>
</defs>
</svg>
