<svg width="33" height="33" viewBox="0 0 33 33" fill="none" xmlns="http://www.w3.org/2000/svg">
<path fill-rule="evenodd" clip-rule="evenodd" d="M0 11.625C0 12.24 0.51 12.75 1.125 12.75C1.74 12.75 2.25 12.24 2.25 11.625V7.875C2.25 4.77 4.77 2.25 7.875 2.25H11.625C12.24 2.25 12.75 1.74 12.75 1.125C12.75 0.51 12.24 0 11.625 0H7.875C3.54 0 0 3.525 0 7.875V11.625ZM30 11.625C30 12.24 30.51 12.75 31.125 12.75C31.74 12.75 32.25 12.24 32.25 11.625V7.875C32.25 3.525 28.71 0 24.375 0H20.625C20.01 0 19.5 0.51 19.5 1.125C19.5 1.74 20.01 2.25 20.625 2.25H24.375C27.48 2.25 30 4.77 30 7.875V11.625ZM24.375 32.25H22.125C21.51 32.25 21 31.74 21 31.125C21 30.51 21.51 30 22.125 30H24.375C27.48 30 30 27.48 30 24.375V22.125C30 21.51 30.51 21 31.125 21C31.74 21 32.25 21.51 32.25 22.125V24.375C32.25 28.725 28.71 32.25 24.375 32.25ZM7.875 32.25H11.625C12.24 32.25 12.75 31.74 12.75 31.125C12.75 30.51 12.24 30 11.625 30H7.875C4.77 30 2.25 27.48 2.25 24.375V20.625C2.25 20.01 1.74 19.5 1.125 19.5C0.51 19.5 0 20.01 0 20.625V24.375C0 28.725 3.54 32.25 7.875 32.25ZM11.625 6H8.625C6.915 6 6 6.9 6 8.625V11.625C6 13.35 6.915 14.25 8.625 14.25H11.625C13.335 14.25 14.25 13.35 14.25 11.625V8.625C14.25 6.9 13.335 6 11.625 6ZM20.625 6H23.625C25.335 6 26.25 6.9 26.25 8.625V11.625C26.25 13.35 25.335 14.25 23.625 14.25H20.625C18.915 14.25 18 13.35 18 11.625V8.625C18 6.9 18.915 6 20.625 6ZM11.625 18H8.625C6.915 18 6 18.9 6 20.625V23.625C6 25.35 6.915 26.25 8.625 26.25H11.625C13.335 26.25 14.25 25.35 14.25 23.625V20.625C14.25 18.9 13.335 18 11.625 18ZM20.625 18H23.625C25.335 18 26.25 18.9 26.25 20.625V23.625C26.25 25.35 25.335 26.25 23.625 26.25H20.625C18.915 26.25 18 25.35 18 23.625V20.625C18 18.9 18.915 18 20.625 18Z" fill="url(#paint0_linear)"/>
<defs>
<linearGradient id="paint0_linear" x1="16.125" y1="0" x2="16.125" y2="32.25" gradientUnits="userSpaceOnUse">
<stop stop-color="#DB5FFF"/>
<stop offset="1" stop-color="#8E4AFF"/>
</linearGradient>
</defs>
</svg>
