<svg width="34" height="35" viewBox="0 0 34 35" fill="none" xmlns="http://www.w3.org/2000/svg">
<path fill-rule="evenodd" clip-rule="evenodd" d="M31.4605 20.265C32.073 20.5975 32.563 21.1225 32.8955 21.6475C33.543 22.7325 33.4905 24.0625 32.843 25.235L31.583 27.335C30.918 28.455 29.6755 29.155 28.4155 29.155C27.7855 29.155 27.0855 28.98 26.508 28.63C26.0355 28.3325 25.493 28.2275 24.933 28.2275C23.148 28.2275 21.678 29.68 21.608 31.4125C21.608 33.425 19.9455 35 17.898 35H15.4655C13.383 35 11.738 33.425 11.738 31.4125C11.6855 29.68 10.2155 28.2275 8.43047 28.2275C7.83547 28.2275 7.29297 28.3325 6.85547 28.63C6.27797 28.98 5.56047 29.155 4.94797 29.155C3.65297 29.155 2.41047 28.455 1.76297 27.335L0.520471 25.235C-0.144529 24.0975 -0.179529 22.7325 0.467971 21.6475C0.747971 21.1225 1.29047 20.5975 1.88547 20.265C2.37547 20.02 2.70797 19.6175 3.00547 19.145C3.89797 17.64 3.35547 15.6625 1.83297 14.77C0.0479707 13.7725 -0.512029 11.55 0.502971 9.8175L1.69297 7.7525C2.72547 6.02 4.93047 5.4075 6.73297 6.4225C8.27297 7.2625 10.303 6.7025 11.213 5.215C11.493 4.725 11.6505 4.2 11.6155 3.675C11.563 2.9925 11.773 2.345 12.1055 1.82C12.753 0.735 13.9605 0.035 15.2555 0H17.7755C19.088 0 20.2955 0.735 20.943 1.82C21.258 2.345 21.468 2.9925 21.4155 3.675C21.363 4.2 21.538 4.725 21.818 5.215C22.728 6.7025 24.7405 7.2625 26.3155 6.4225C28.083 5.4075 30.3055 6.02 31.338 7.7525L32.528 9.8175C33.5605 11.55 32.983 13.7725 31.198 14.7525C29.6755 15.645 29.133 17.6225 30.043 19.1275C30.323 19.6 30.638 20.0025 31.1455 20.2475L31.4605 20.265ZM11.6855 17.5175C11.6855 20.265 13.943 22.4525 16.7605 22.4525C19.5605 22.4525 21.783 20.265 21.783 17.5175C21.783 14.77 19.5605 12.565 16.743 12.565C13.9255 12.565 11.6505 14.7525 11.6505 17.5L11.6855 17.5175Z" fill="url(#paint0_linear)"/>
<defs>
<linearGradient id="paint0_linear" x1="16.6778" y1="0" x2="16.6778" y2="35" gradientUnits="userSpaceOnUse">
<stop stop-color="#0C8EFF"/>
<stop offset="1" stop-color="#0271D1"/>
</linearGradient>
</defs>
</svg>
