<svg width="173" height="347" viewBox="0 0 173 347" fill="none" xmlns="http://www.w3.org/2000/svg">
<path d="M172.642 86.3207C172.642 38.647 133.994 0 86.3208 0V0C38.6472 0 7.62939e-05 38.6471 7.62939e-05 86.3208L7.62939e-05 231.525C7.62939e-05 295.038 51.4873 346.525 115 346.525H172.642L172.642 86.3207Z" fill="url(#paint0_linear)"/>
<path d="M172.642 165.81C172.642 132.541 145.672 105.572 112.403 105.572V105.572C79.1347 105.572 52.1651 132.541 52.1651 165.81L52.1651 231.525C52.1651 295.038 103.652 346.525 167.165 346.525H172.642L172.642 165.81Z" fill="url(#paint1_linear)"/>
<defs>
<linearGradient id="paint0_linear" x1="7.62939e-05" y1="0" x2="276.622" y2="137.815" gradientUnits="userSpaceOnUse">
<stop stop-color="#DB5FFF"/>
<stop offset="1" stop-color="#8E4AFF"/>
</linearGradient>
<linearGradient id="paint1_linear" x1="52.1651" y1="105.572" x2="244.927" y2="201.953" gradientUnits="userSpaceOnUse">
<stop stop-color="white" stop-opacity="0.2"/>
<stop offset="1" stop-color="white" stop-opacity="0"/>
</linearGradient>
</defs>
</svg>
