<svg width="106" height="106" viewBox="0 0 106 106" fill="none" xmlns="http://www.w3.org/2000/svg">
<path d="M0 52.736C0 23.6107 23.6107 0 52.736 0V0C81.8614 0 105.472 23.6107 105.472 52.736V52.736C105.472 81.8614 81.8614 105.472 52.736 105.472H0V52.736Z" fill="url(#paint0_linear)"/>
<path d="M0 68.7249C0 48.4302 16.4522 31.978 36.7469 31.978V31.978C57.0417 31.978 73.4939 48.4302 73.4939 68.725V68.725C73.4939 89.0197 57.0417 105.472 36.7469 105.472H0V68.7249Z" fill="url(#paint1_linear)"/>
<defs>
<linearGradient id="paint0_linear" x1="105.472" y1="0" x2="1.25733e-05" y2="105.472" gradientUnits="userSpaceOnUse">
<stop stop-color="#FD9786"/>
<stop offset="1" stop-color="#FF3156"/>
</linearGradient>
<linearGradient id="paint1_linear" x1="73.4939" y1="31.978" x2="8.76115e-06" y2="105.472" gradientUnits="userSpaceOnUse">
<stop stop-color="white" stop-opacity="0.2"/>
<stop offset="1" stop-color="white" stop-opacity="0"/>
</linearGradient>
</defs>
</svg>
