<svg width="21" height="16" viewBox="0 0 21 16" fill="none" xmlns="http://www.w3.org/2000/svg">
<path fill-rule="evenodd" clip-rule="evenodd" d="M2.33333 0H18.6667C19.95 0 21 1.03833 21 2.33333V12.8333C21 14.1167 19.95 15.1667 18.6667 15.1667H2.33333C1.03833 15.1667 0 14.1167 0 12.8333V2.33333C0 1.03833 1.03833 0 2.33333 0ZM17.6633 2.135L10.4883 5.985L3.31333 2.12333C2.88167 1.89 2.35667 2.05333 2.12333 2.47333C1.89 2.89333 2.05333 3.41833 2.47333 3.65167L10.0567 7.735C10.3133 7.86333 10.6167 7.86333 10.885 7.735L18.4683 3.65167C18.8883 3.41833 19.0517 2.88167 18.8183 2.46167C18.585 2.03 18.0483 1.86667 17.6283 2.1L17.6633 2.135Z" fill="#747792"/>
</svg>
