<svg width="24" height="24" viewBox="0 0 24 24" fill="none" xmlns="http://www.w3.org/2000/svg">
<path d="M2.99862 4.50001C2.86611 4.49813 2.73454 4.52262 2.61157 4.57203C2.48861 4.62144 2.37669 4.6948 2.28232 4.78785C2.18795 4.88089 2.11301 4.99177 2.06186 5.11402C2.01071 5.23628 1.98437 5.36748 1.98438 5.50001C1.98438 5.63253 2.01071 5.76374 2.06186 5.88599C2.11301 6.00825 2.18795 6.11912 2.28232 6.21217C2.37669 6.30521 2.48861 6.37857 2.61157 6.42799C2.73454 6.4774 2.86611 6.50188 2.99862 6.50001H20.9986C21.1311 6.50188 21.2627 6.4774 21.3857 6.42799C21.5086 6.37857 21.6206 6.30521 21.7149 6.21217C21.8093 6.11912 21.8842 6.00825 21.9354 5.88599C21.9865 5.76374 22.0129 5.63253 22.0129 5.50001C22.0129 5.36748 21.9865 5.23628 21.9354 5.11402C21.8842 4.99177 21.8093 4.88089 21.7149 4.78785C21.6206 4.6948 21.5086 4.62144 21.3857 4.57203C21.2627 4.52262 21.1311 4.49813 20.9986 4.50001H2.99862ZM2.99862 11C2.86611 10.9981 2.73454 11.0226 2.61157 11.072C2.48861 11.1214 2.37669 11.1948 2.28232 11.2878C2.18795 11.3809 2.11301 11.4918 2.06186 11.614C2.01071 11.7363 1.98438 11.8675 1.98438 12C1.98438 12.1325 2.01071 12.2637 2.06186 12.386C2.11301 12.5083 2.18795 12.6191 2.28232 12.7122C2.37669 12.8052 2.48861 12.8786 2.61157 12.928C2.73454 12.9774 2.86611 13.0019 2.99862 13H20.9986C21.1311 13.0019 21.2627 12.9774 21.3857 12.928C21.5086 12.8786 21.6206 12.8052 21.7149 12.7122C21.8093 12.6191 21.8842 12.5083 21.9354 12.386C21.9865 12.2637 22.0129 12.1325 22.0129 12C22.0129 11.8675 21.9865 11.7363 21.9354 11.614C21.8842 11.4918 21.8093 11.3809 21.7149 11.2878C21.6206 11.1948 21.5086 11.1214 21.3857 11.072C21.2627 11.0226 21.1311 10.9981 20.9986 11H2.99862ZM2.99862 17.5C2.86611 17.4981 2.73454 17.5226 2.61157 17.572C2.48861 17.6214 2.37669 17.6948 2.28232 17.7878C2.18795 17.8809 2.11301 17.9918 2.06186 18.114C2.01071 18.2363 1.98438 18.3675 1.98438 18.5C1.98438 18.6325 2.01071 18.7637 2.06186 18.886C2.11301 19.0083 2.18795 19.1191 2.28232 19.2122C2.37669 19.3052 2.48861 19.3786 2.61157 19.428C2.73454 19.4774 2.86611 19.5019 2.99862 19.5H20.9986C21.1311 19.5019 21.2627 19.4774 21.3857 19.428C21.5086 19.3786 21.6206 19.3052 21.7149 19.2122C21.8093 19.1191 21.8842 19.0083 21.9354 18.886C21.9865 18.7637 22.0129 18.6325 22.0129 18.5C22.0129 18.3675 21.9865 18.2363 21.9354 18.114C21.8842 17.9918 21.8093 17.8809 21.7149 17.7878C21.6206 17.6948 21.5086 17.6214 21.3857 17.572C21.2627 17.5226 21.1311 17.4981 20.9986 17.5H2.99862Z" fill="white"/>
</svg>
