<svg width="125" height="57" viewBox="0 0 125 57" fill="none" xmlns="http://www.w3.org/2000/svg">
<path d="M5.89391 26.7998L10.3609 11.9927C11.1467 10.0074 12.2841 9.22153 13.3802 8.76656C16.7511 7.42234 18.3434 10.0694 18.3434 10.0694C18.5916 10.6071 19.3981 10.2555 19.3981 10.2555L24.5475 8.68384C28.5595 7.54642 29.6349 10.8553 29.6349 10.8553L31.765 15.4049C32.406 16.9146 31.5995 19.1274 31.5995 19.1274C31.0205 20.637 29.4281 21.9399 29.4281 21.9399C33.9571 21.3609 35.1979 26.8825 35.1979 26.8825C36.5628 27.172 37.7829 30.4809 37.7829 30.4809C38.2586 31.5356 38.5067 31.5356 38.5067 31.5356C36.5007 21.9606 41.3606 17.6177 41.3606 17.6177C43.6561 14.9707 46.3446 15.1981 46.3446 15.1981C51.1217 15.1981 51.5767 20.4509 51.5767 20.4509C51.6387 21.7124 53.2518 20.9266 53.2518 20.9266C54.8442 20.3268 55.0717 18.6724 55.0717 18.6724L57.7601 8.80792C58.2978 6.71921 60.3658 6.69853 60.3658 6.69853H63.9228C65.3291 6.80193 66.2597 9.24221 66.2597 9.24221L68.1002 13.4403L71.74 2.21091C73.4151 -1.1393 76.2896 0.556483 76.2896 0.556483L78.6472 2.21091C79.4951 2.87268 80.0328 4.46506 80.0328 4.46506L81.8526 8.5184C82.411 10.1728 81.5011 12.8199 81.5011 12.8199L80.9841 14.8879C82.3903 15.6531 83.4864 20.0373 83.4864 20.0373C87.9326 10.3796 93.6818 10.9794 93.6818 10.9794C98.066 11.3723 98.8725 15.9633 98.8725 15.9633C99.9065 16.1081 101.085 18.7758 101.085 18.7758C103.195 12.7785 105.304 9.49037 105.304 9.49037C106.628 7.33962 109.792 8.02207 109.792 8.02207C110.764 8.24955 112.108 10.0074 112.108 10.0074C112.749 10.8139 114.093 14.3296 114.093 14.3296C114.941 12.6751 117.464 13.1715 117.464 13.1715L120.07 13.8332C121.311 14.2468 122.014 16.0253 122.014 16.0253L124.102 20.7405C124.516 21.9813 123.896 24.0286 123.896 24.0286L116.037 42.7236C115.603 43.6956 114.59 46.1772 114.59 46.1772C114.197 47.1699 114.031 48.1005 114.031 48.1005C112.48 52.3193 109.006 51.8229 109.006 51.8229C104.663 51.9057 103.505 49.1552 103.505 49.1552L101.458 44.9984C100.734 42.8684 101.747 41.8344 101.747 41.8344C102.905 40.5729 104.105 40.4281 104.105 40.4281C104.704 40.2626 104.87 39.4561 104.87 39.4561L105.263 38.2153C104.043 37.4915 103.402 36.6436 103.402 36.6436C99.6584 41.4621 95.6464 39.6009 95.6464 39.6009C91.2828 44.0678 87.1881 40.2213 87.1881 40.2213C84.4997 37.6156 83.5691 34.6169 83.5691 34.6169C79.1228 45.8257 71.7193 45.4327 71.7193 45.4327C67.6039 45.3086 66.4045 43.2406 66.4045 43.2406C62.744 48.6795 55.0303 46.7769 55.0303 46.7769C53.9342 47.873 52.2178 47.7282 52.2178 47.7282C51.3906 50.6855 48.3919 50.2099 48.3919 50.2099C42.9116 50.1478 39.9957 46.7356 39.9957 46.7356C36.2733 52.6708 32.0752 50.458 32.0752 50.458C28.5595 54.47 24.4235 51.8643 24.4235 51.8643C22.8104 50.8716 21.9625 49.1965 21.9625 49.1965C15.4275 56.5794 7.7965 56.8689 7.7965 56.8689C4.52901 57.0757 3.26751 54.7389 3.26751 54.7389L0.620437 49.2172C-0.475619 46.5908 0.620437 43.1372 0.620437 43.1372L3.37092 33.6863C0.14479 29.5503 5.08738 27.7718 5.08738 27.7718C5.79051 27.5443 5.89391 26.7998 5.89391 26.7998Z" fill="#48EDFF"/>
<path d="M29.7175 44.0886C23.7616 50.2513 20.2873 43.0339 20.2873 43.0339C17.206 37.14 22.1072 28.8266 22.1072 28.8266C26.2433 21.6712 30.1518 22.8086 30.1518 22.8086C33.7088 23.2429 34.0811 27.503 34.0811 27.503C37.0797 27.9373 35.8803 31.8666 35.8803 31.8666C33.9777 36.2921 33.6882 38.6497 33.6882 38.6497C36.6248 36.1267 37.5761 33.4589 37.5761 33.4589C41.9396 37.8225 41.9396 37.2434 41.9396 37.2434C42.3118 36.8091 40.9676 34.6584 40.9676 34.6584C36.3352 25.6004 41.4433 19.1068 41.4433 19.1068C45.1037 13.792 48.8261 16.8527 48.8261 16.8527C51.5146 19.0448 50.3565 25.9934 50.3565 25.9934C49.4465 29.2815 47.1303 27.7305 47.1303 27.7305C46.9856 26.5104 46.4272 26.5517 46.4272 26.5517C44.5246 27.1928 45.6207 31.7425 45.6207 31.7425C45.9516 33.0453 47.6267 36.4369 47.6267 36.4369C48.4539 37.8638 48.6607 38.8565 48.6607 38.8565C51.8455 36.2301 53.3758 27.5444 53.3758 27.5444C53.6446 25.9727 52.2797 24.8146 52.2797 24.8146C50.6253 23.0774 51.9075 22.2916 51.9075 22.2916C52.4659 21.8573 53.231 21.8159 53.231 21.8159C55.3818 21.4437 55.9195 19.3136 55.9195 19.3136C58.3391 10.3797 58.7527 9.15959 58.7527 9.15959C59.3938 7.56721 60.6553 7.56721 60.6553 7.56721C62.4544 7.3604 63.6539 7.56721 63.6539 7.56721C65.3497 8.12558 64.7913 9.90408 64.7913 9.90408L62.9301 17.3903C62.5992 18.7139 62.7233 18.8793 62.7233 18.8793C62.806 19.2309 63.261 19.0861 63.261 19.0861C65.6185 18.7139 66.3837 19.0448 66.3837 19.0448C66.9421 19.2723 67.1075 20.0374 67.1075 20.0374L72.6912 2.72802C73.353 0.804752 75.421 1.30108 75.421 1.30108C76.393 1.56992 77.9853 2.93482 77.9853 2.93482C79.3502 4.50652 78.6264 5.95415 78.6264 5.95415L76.0621 14.5365C81.8526 12.882 82.1421 20.7199 82.1421 20.7199C82.1628 28.6818 76.8479 35.0927 76.8479 35.0927C69.4857 43.675 64.0468 36.6851 64.0468 36.6851C59.311 43.158 52.5486 40.573 52.5486 40.573C50.8114 42.0413 49.0123 41.7311 49.0123 41.7311C48.578 44.8538 45.3105 44.0886 45.3105 44.0886C40.492 43.3234 37.5554 40.1594 37.5554 40.1594C32.8609 47.232 29.7175 44.0886 29.7175 44.0886Z" fill="#0A0C27"/>
<path d="M29.7178 42.4756C26.7398 47.0459 23.7825 45.3088 23.7825 45.3088C19.2122 42.8271 20.453 36.561 20.453 36.561C22.3556 26.1795 28.2081 23.9253 28.2081 23.9253C33.1714 22.6432 33.1714 28.475 33.1714 28.475C34.0606 28.475 34.9705 28.7025 35.0326 30.026C35.1153 31.7425 34.2261 33.4796 34.2261 33.4796C32.4889 37.8225 32.5303 39.0633 32.5303 39.0633C32.5303 40.9659 34.0399 39.6424 34.0399 39.6424C36.5216 37.8639 37.9071 35.2995 37.9071 35.2995C41.8157 39.3735 42.5602 37.9673 42.5602 37.9673C43.6769 36.6851 41.8157 34.2448 41.8157 34.2448C37.2867 25.497 42.3534 19.4791 42.3534 19.4791C45.1452 15.8807 47.234 17.0802 47.234 17.0802C49.9431 18.2383 49.6329 22.85 49.6329 22.85C49.9017 28.1648 47.8544 27.1101 47.8544 27.1101C46.6135 23.8633 45.0212 26.407 45.0212 26.407C43.5322 29.0747 44.7523 32.3009 44.7523 32.3009C46.4895 36.561 47.3787 38.112 47.3787 38.112C49.0125 41.8758 47.3374 42.9512 47.3374 42.9512C42.6843 44.4195 37.4935 38.6911 37.4935 38.6911C32.0546 47.17 29.7178 42.4756 29.7178 42.4756Z" fill="#0A0C27"/>
<path d="M52.2592 39.5389C49.943 41.4002 48.3506 40.5109 48.3506 40.5109C53.0037 36.9539 54.3892 27.6891 54.3892 27.6891C54.8235 25.2489 52.7969 23.9253 52.7969 23.9253C51.9903 23.2635 52.7555 22.9947 52.7555 22.9947C56.1264 22.2502 56.6641 20.4303 56.6641 20.4303C58.1737 15.5498 59.5386 9.86272 59.5386 9.86272C59.8902 8.6219 61.0483 8.49782 61.0483 8.49782C62.5166 8.4151 62.8268 8.49782 62.8268 8.49782C64.2951 8.53918 63.8194 10.0488 63.8194 10.0488L61.8341 17.6385C61.2551 20.1615 62.5786 20.0581 62.5786 20.0581L65.4946 19.7893C66.5699 19.8306 65.9909 20.4303 65.9909 20.4303C65.6393 20.6992 64.9362 21.0714 64.9362 21.0714C62.4545 22.3123 61.7307 22.9947 61.7307 22.9947C59.1043 25.3523 58.1324 29.7572 58.1324 29.7572C57.2638 33.0246 57.1604 33.8519 57.1604 33.8519C56.7054 37.0366 59.3939 36.0853 59.3939 36.0853C63.3438 34.2655 64.8948 30.0053 64.8948 30.0053L73.4771 3.32774C73.8908 2.25237 74.7593 2.23169 74.7593 2.23169C75.6279 2.27305 77.1582 3.61727 77.1582 3.61727C78.0061 4.5272 77.6959 5.70598 77.6959 5.70598L74.4905 16.4804C77.3857 14.3917 78.9161 15.7773 78.9161 15.7773C82.2663 18.1555 80.9221 23.884 80.9221 23.884C79.309 32.2388 74.2837 36.3955 74.2837 36.3955C72.4845 37.9466 70.8921 38.4429 69.5272 38.3808C64.7707 38.1327 64.3571 34.7204 64.3571 34.7204C59.2491 42.7237 52.2592 39.5389 52.2592 39.5389Z" fill="#0A0C27"/>
<path d="M93.2887 33.1487C87.9325 38.8772 84.2307 32.7558 84.2307 32.7558C80.4876 25.7038 86.2574 16.9561 86.2574 16.9561C90.807 10.4418 94.5501 11.9721 94.5501 11.9721C97.4868 12.8614 97.7142 16.6045 97.7142 16.6045C100.713 17.1422 99.6789 20.6372 99.6789 20.6372C99.0378 23.0981 98.5828 23.9874 98.5828 23.9874C97.2799 26.9033 97.4867 27.7098 97.4867 27.7098C98.0451 27.8132 99.865 24.7732 99.865 24.7732C101.168 22.7672 101.892 19.8513 101.892 19.8513C103.98 13.7506 106.048 10.235 106.048 10.235C107.31 8.37375 109.109 8.82872 109.109 8.82872C110.97 9.51117 111.798 11.6206 111.798 11.6206C112.397 13.6265 111.425 14.6812 111.425 14.6812C108.241 20.6992 107.206 24.463 107.206 24.463C106.669 26.2622 107.144 26.6345 107.144 26.6345C108.034 27.0067 109.399 25.3936 109.399 25.3936C110.205 24.6905 110.805 22.8913 110.805 22.8913L114.3 15.5084C115.106 13.8127 116.554 13.9367 116.554 13.9367C119.222 14.3297 119.925 14.8674 119.925 14.8674C121.621 16.1289 120.545 18.6932 120.545 18.6932L111.922 39.1874C111.053 41.152 110.764 42.3515 110.764 42.3515C109.771 46.4462 106.048 45.7844 106.048 45.7844C101.933 45.2881 102.285 43.1787 102.285 43.1787C102.347 42.124 103.546 41.6483 103.546 41.6483C104.683 41.2554 105.076 41.0486 105.076 41.0486C105.614 40.7798 105.842 39.8078 105.842 39.8078C107.579 34.6584 108.344 32.2181 108.344 32.2181C103.215 34.0173 101.251 29.9847 101.251 29.9847C95.791 36.1474 93.2887 33.1487 93.2887 33.1487Z" fill="#0A0C27"/>
<path d="M93.3093 31.515C90.4555 35.7752 87.6223 34.4723 87.6223 34.4723C82.1006 32.0113 84.2307 24.2356 84.2307 24.2356C86.8364 13.2957 93.3093 12.82 93.3093 12.82C96.6802 12.2823 96.8663 17.6799 96.8663 17.6799C99.8857 17.1836 98.2726 21.4851 98.2726 21.4851C95.274 29.3022 97.0111 29.1368 97.0111 29.1368C99.41 29.0127 102.078 22.0228 102.078 22.0228C105.531 12.7787 107.103 10.4418 107.103 10.4418C108.158 9.03554 109.523 10.235 109.523 10.235C111.694 12.2617 110.888 13.6059 110.888 13.6059C107.269 20.2236 106.069 24.856 106.069 24.856C105.345 27.6478 107.372 27.6892 107.372 27.6892C109.626 27.5237 111.053 24.6285 111.053 24.6285C114.403 17.804 115.127 15.8807 115.127 15.8807C115.892 14.4124 117.319 15.0121 117.319 15.0121C118.332 15.281 119.242 15.5498 119.242 15.5498C120.442 16.4391 119.677 17.9487 119.677 17.9487L110.122 41.0073C109.75 41.9792 109.523 42.6617 109.523 42.6617C108.551 45.2261 105.738 44.7918 105.738 44.7918C102.946 44.13 103.132 43.3235 103.132 43.3235C103.174 42.6617 104.229 42.4549 104.229 42.4549C106.317 41.7311 106.483 40.5937 106.483 40.5937C108.613 34.9273 109.936 30.0054 109.936 30.0054C103.174 34.8239 101.375 27.7719 101.375 27.7719C95.4808 36.4783 93.3093 31.515 93.3093 31.515Z" fill="#0A0C27"/>
<path d="M26.5533 40.2834C26.5533 40.2834 25.5606 41.6897 24.5473 41.3381C23.534 40.9865 23.8028 37.7397 23.8028 37.7397C25.3745 30.9566 28.8902 28.1234 28.8902 28.1234C30.4826 27.2341 30.8341 29.5503 30.8341 29.5503C30.9582 33.5416 26.5533 40.2834 26.5533 40.2834Z" fill="#0A0C27"/>
<path d="M26.0986 33.9139C28.7663 28.4543 29.6556 28.9506 29.6556 28.9506C30.6276 30.0053 28.2493 35.1134 28.2493 35.1134C25.6229 40.697 24.9818 40.3868 24.9818 40.3868C24.7337 40.2214 24.6923 39.7044 24.775 39.0426C24.9405 36.3748 26.0986 33.9139 26.0986 33.9139Z" fill="#48EDFF"/>
<path d="M66.7975 20.9267C64.6261 27.9166 64.0056 29.6331 64.0056 29.6331C61.3999 35.2374 58.3392 35.2374 58.3392 35.2374C57.8429 35.0099 58.3392 32.8799 58.3392 32.8799C59.4973 27.8546 60.5727 26.0554 60.5727 26.0554C61.7101 23.6565 63.9022 22.7259 63.9022 22.7259L66.7975 20.9267Z" fill="#48EDFF"/>
<path d="M4.57055 33.2107C2.23368 30.9773 4.3017 29.3228 4.3017 29.3228C5.06688 28.599 5.83205 28.4543 5.83205 28.4543C6.96946 27.9166 6.96946 26.8826 6.96946 26.8826C10.2163 15.6532 11.395 12.3443 11.395 12.3443C12.7186 9.07683 15.2829 9.15955 15.2829 9.15955C17.1028 9.28364 17.6198 10.814 17.6198 10.814C17.9921 11.6412 18.8193 11.3517 18.8193 11.3517L24.8372 9.5318C28.084 8.84935 28.4976 11.1862 28.4976 11.1862C28.9319 13.6058 27.1948 15.3843 27.1948 15.3843C25.7885 16.6872 24.8993 16.6872 24.8993 16.6872C20.6805 17.6798 18.3023 18.9206 18.3023 18.9206C17.413 19.3136 17.3303 19.8926 17.3303 19.8926L15.5311 25.1247C20.2669 23.3256 20.8459 24.7939 20.8459 24.7939C22.6451 26.9653 20.5564 30.0467 20.5564 30.0467C19.3156 32.156 13.1942 33.7484 13.1942 33.7484L11.1262 41.4001L16.2549 39.8698C20.5357 39.0012 18.7366 43.5302 18.7366 43.5302C18.5297 43.9852 15.2002 47.2527 11.9327 48.7623C6.78334 51.1612 5.64592 50.851 5.64592 50.851C-0.0204767 50.7476 1.53054 44.6676 1.53054 44.6676L4.57055 33.2107Z" fill="#0A0C27"/>
<path d="M7.79654 27.6064L12.2842 12.6959C13.4216 9.75933 15.3862 10.1729 15.3862 10.1729C16.4823 10.3797 16.8545 11.3931 16.8545 11.3931C17.4542 12.8407 19.1707 12.2823 19.1707 12.2823L25.2507 10.4625C27.0913 9.90409 27.5669 11.4758 27.5669 11.4758C27.7944 12.9855 27.0499 14.0195 27.0499 14.0195C26.1813 15.3223 24.8578 15.7152 24.8578 15.7152L20.1013 16.9974C17.1647 17.8246 16.565 18.8793 16.565 18.8793L14.2281 26.5104L18.0333 25.3109C19.5223 24.7732 20.2668 25.5177 20.2668 25.5177C21.3008 27.1101 19.7704 29.2402 19.7704 29.2402C18.6123 30.8946 16.8131 31.3702 16.8131 31.3702L12.3255 33.004L10.0093 41.5656C9.53369 42.9305 11.1261 42.3101 11.1261 42.3101L16.565 40.7798C17.8265 40.4696 18.1574 41.4209 18.1574 41.4209C18.4262 42.4135 17.7851 43.2821 17.7851 43.2821C12.7185 48.1833 7.38293 49.6309 7.38293 49.6309C3.7432 50.5202 2.62647 48.3901 2.62647 48.3901C1.67517 46.4668 2.79191 43.2407 2.79191 43.2407L5.58375 33.3555C5.70783 32.8592 5.52171 32.7145 5.52171 32.7145C3.95 31.7838 4.52905 30.6671 4.52905 30.6671C4.96334 29.6744 6.45232 29.1988 6.45232 29.1988C7.58974 28.6818 7.79654 27.6064 7.79654 27.6064Z" fill="#0A0C27"/>
<path d="M88.2841 30.7499C85.6784 29.2195 89.4216 21.4644 89.4216 21.4644C92.2754 15.8394 93.8885 17.2663 93.8885 17.2663C96.0599 19.3964 92.2548 26.1795 92.2548 26.1795C89.649 31.3909 88.2841 30.7499 88.2841 30.7499Z" fill="#0A0C27"/>
<path d="M89.8764 23.1602C92.5442 17.7006 93.4334 18.1969 93.4334 18.1969C94.4054 19.2516 92.0272 24.3597 92.0272 24.3597C89.4008 29.9433 88.7597 29.6331 88.7597 29.6331C88.5115 29.4677 88.4702 28.9507 88.5529 28.2889C88.739 25.6212 89.8764 23.1602 89.8764 23.1602Z" fill="#48EDFF"/>
<path d="M75.5242 18.3003C78.6883 19.9547 75.1933 28.4543 75.1933 28.4543C72.1327 35.2374 70.1267 34.4309 70.1267 34.4309C67.8932 33.3555 72.0499 23.2842 72.0499 23.2842C73.9112 17.8453 75.5242 18.3003 75.5242 18.3003Z" fill="#0A0C27"/>
<path d="M72.1947 25.828C74.5523 19.231 75.3175 19.3137 75.3175 19.3137C75.7104 19.4998 75.7311 20.2236 75.8138 21.1129C76.0826 23.9667 74.7798 26.7586 74.7798 26.7586C72.8772 32.6525 70.623 33.459 70.623 33.459C70.4783 33.521 70.5196 32.8386 70.5196 32.8386C70.4162 29.9227 72.1947 25.828 72.1947 25.828Z" fill="#48EDFF"/>
<path d="M99.0377 42.9098C99.0377 43.6543 98.4587 44.2334 97.6935 44.2334C96.9283 44.2334 96.3286 43.6543 96.3286 42.9098C96.3286 42.186 96.9283 41.5863 97.6935 41.5863C98.438 41.5863 99.0377 42.1654 99.0377 42.9098ZM96.6595 42.9098C96.6595 43.4889 97.0938 43.9645 97.6935 43.9645C98.2726 43.9645 98.7068 43.4889 98.7068 42.9098C98.7068 42.3308 98.2726 41.8552 97.6935 41.8552C97.0938 41.8552 96.6595 42.3308 96.6595 42.9098ZM97.466 43.5923H97.1558V42.2688C97.2799 42.2481 97.4453 42.2274 97.6728 42.2274C97.921 42.2274 98.0244 42.2688 98.1278 42.3308C98.2105 42.3928 98.2519 42.4962 98.2519 42.6203C98.2519 42.7651 98.1485 42.8685 97.983 42.9305V42.9512C98.1071 42.9926 98.1898 43.096 98.2312 43.2821C98.2726 43.4889 98.2932 43.5716 98.3346 43.613H98.0037C97.9624 43.5716 97.9417 43.4475 97.9003 43.2821C97.8796 43.1373 97.7969 43.0753 97.6315 43.0753H97.4867V43.5923H97.466ZM97.4867 42.8478H97.6315C97.7969 42.8478 97.9417 42.7858 97.9417 42.6617C97.9417 42.5376 97.859 42.4549 97.6522 42.4549C97.5694 42.4549 97.5074 42.4549 97.4867 42.4756V42.8478Z" fill="#48EDFF"/>
</svg>
