<svg width="122" height="44" viewBox="0 0 122 44" fill="none" xmlns="http://www.w3.org/2000/svg">
<path d="M60.9268 43.9403C49.5955 43.9403 38.7856 41.7743 30.4827 37.8434C21.7786 33.7321 16.9854 28.1968 16.9854 22.2804C16.9854 16.3641 21.7786 10.8288 30.4827 6.7174C38.7856 2.78653 49.6155 0.620544 60.9268 0.620544C72.2581 0.620544 83.068 2.78653 91.391 6.7174C100.095 10.8288 104.868 16.3641 104.868 22.2804C104.868 28.1968 100.075 33.7321 91.391 37.8434C83.0881 41.7743 72.2581 43.9403 60.9268 43.9403Z" fill="#FD9786"/>
<path d="M60.927 41.8345C38.5251 41.8345 19.5928 32.8897 19.5928 22.2804C19.5928 11.6711 38.5251 2.72635 60.927 2.72635C83.329 2.72635 102.261 11.6711 102.261 22.2804C102.281 32.8697 83.349 41.8345 60.927 41.8345Z" fill="#0A0C27"/>
<path d="M7.27869 38.6858C4.95226 38.6858 3.34782 36.5799 3.30771 34.5945L0.800781 9.96638C0.800781 8.82322 1.20189 7.78034 1.964 7.01823C2.70605 6.25613 3.70882 5.83496 4.77176 5.83496H117.122C119.328 5.83496 121.133 7.6199 121.133 9.82599V9.92627L118.606 34.6747C118.566 36.8407 116.741 38.6858 114.635 38.6858L102.301 38.6457L94.1789 35.7777V34.5945C93.9382 34.434 92.394 33.5716 87.1194 32.7293C82.647 32.0274 74.4443 31.165 60.8668 31.165C46.106 31.165 37.8031 31.9471 33.4711 32.5889C28.8383 33.2909 27.4143 34.0129 27.1135 34.2134L27.1336 35.3365L26.8327 35.497L19.9738 38.6256L7.27869 38.6858Z" fill="#FD9786"/>
<path d="M7.21825 36.8407C5.97482 36.8407 5.09238 35.6374 5.09238 34.5143L2.58545 9.80596C2.58545 8.62269 3.54811 7.68008 4.71133 7.68008H117.062C118.245 7.68008 119.208 8.64275 119.208 9.80596V9.84607L116.681 34.5143C116.661 35.7577 115.678 36.8206 114.555 36.8206L102.502 36.7805L95.9636 34.4541C95.9636 31.4057 81.9649 29.2998 60.7863 29.2998C39.7281 29.2998 25.1879 30.8441 25.1879 33.9126V34.1533L19.412 36.7805L7.21825 36.8407Z" fill="#0A0C27"/>
<path d="M40.21 24.1455V12.9546C40.21 12.4933 40.6512 12.2326 41.7142 12.2126V11.1496H34.1733V12.2126C35.0758 12.2126 35.6775 12.4933 35.6775 12.9546L35.6574 17.5874H29.9015V12.9546C29.9015 12.4933 30.4831 12.2126 31.3856 12.2126V11.1496H23.8448V12.2126C24.9077 12.2126 25.3289 12.4933 25.3289 13.0148V26.9132C25.3289 27.6151 24.2659 28.1967 23.8247 28.3371L23.8448 29.4602C26.9935 28.5778 28.5377 28.2569 31.3856 27.6753V26.6124C31.3856 26.6124 29.8815 26.5723 29.8815 25.8503V19.7334H35.6574L35.6374 24.8274C35.517 25.6296 35.156 25.8703 34.1131 26.0709V27.1338C37.4624 26.6124 39.2072 26.3516 41.674 26.0909V24.9879C41.7142 25.0079 40.2501 24.8876 40.21 24.1455Z" fill="#FD9786"/>
<path d="M19.4725 28.3973C15.662 32.6089 11.0693 29.0391 11.0693 21.3578C11.0693 18.4097 12.9144 13.0148 15.8425 13.0348C19.7332 13.0749 21.7989 17.1662 21.7989 17.1662H22.8619V11.1095H21.7789C21.7789 11.1095 20.8964 12.0922 19.7332 11.8917C18.7104 11.7312 17.9483 10.5279 15.8826 10.4276C11.1295 10.1869 5.91504 15.4816 5.91504 21.3979C5.91504 29.2797 12.0921 33.1905 15.1807 32.99C19.5728 32.6891 18.4497 31.0045 22.8619 29.7009V24.7873H21.7588C21.1973 26.0708 20.4552 27.3544 19.4725 28.3973Z" fill="#FD9786"/>
<path d="M96.5855 11.1296H85.1138V12.1925C85.7155 12.1925 86.5578 12.1524 86.618 13.0348V24.667C86.618 25.5494 85.7756 25.5695 85.0938 25.6497V26.7126C87.36 27.0736 89.165 27.3544 92.6547 28.0764V27.0335C91.9728 26.9934 91.1505 26.4319 91.1304 25.4893V19.6732H96.4451C97.2875 19.5729 99.7543 18.2894 99.7543 15.5418C99.7944 12.9947 97.9693 11.1296 96.5855 11.1296ZM94.1789 17.5674H91.1706V12.7741H94.1789C95.2017 12.7741 95.7432 14.2783 95.7432 15.1607C95.7432 16.0432 95.0814 17.5674 94.1789 17.5674Z" fill="#FD9786"/>
<path d="M103.886 14.5189C103.826 12.6337 105.631 12.2928 107.115 12.4933C110.263 12.9346 111.988 15.9429 112.269 16.5847H113.352V11.1496H112.269C112.108 12.7942 109 10.4878 106.012 10.4276C103.404 10.3875 101.178 11.7713 100.837 14.3986C99.7543 22.9021 111.968 22.9021 111.968 26.5321C111.968 28.6781 109.862 30.2825 107.456 30.102C102.662 29.7611 101.479 23.2431 101.419 22.6414H100.356V30.2424C103.605 30.1421 104.608 32.2279 107.395 32.4686C109.722 32.6491 115.498 31.185 115.498 25.048C115.498 17.4871 104.026 18.7105 103.886 14.5189Z" fill="#FD9786"/>
<path d="M73.8828 17.4671L69.992 11.1296H63.2534V12.1925C64.196 12.1925 64.7576 12.4933 64.7576 12.9546L64.7375 23.0626C64.7375 23.9249 63.2735 24.0453 63.2735 24.0453V25.0882C66.9236 25.1483 68.3475 25.1884 69.7714 25.2486V24.1656C69.1698 24.1054 68.3274 23.8247 68.3074 23.1428V17.066L73.2009 25.2687C73.3012 25.5093 73.4817 25.5093 73.582 25.2687L78.0142 17.4069V23.6642C77.8538 24.3662 77.1919 24.5266 76.5101 24.6469V25.7099C78.8164 25.9104 80.0599 26.0709 84.0108 26.5723V25.5093C83.4292 25.389 82.6671 24.8876 82.5267 24.2458V12.9747C82.5267 12.5335 83.0682 12.2126 84.0108 12.2126V11.1496H77.4928L73.8828 17.4671Z" fill="#FD9786"/>
<path d="M60.5261 22.9222L55.3117 11.1296H48.9742V12.1925C49.997 12.2326 50.2778 12.8343 49.7363 13.9373C49.255 14.9201 44.8829 22.7216 44.1809 24.0453C43.8801 24.6469 43.4188 24.7873 42.6567 24.9077V26.0107C45.8857 25.6698 48.1519 25.4692 49.5759 25.4291L49.5558 24.3461C48.914 24.3662 47.9915 24.0453 48.2321 23.2431L48.894 21.9796H55.0309L55.5323 23.2029C55.6527 23.8447 54.8103 24.0653 54.2087 24.1054L54.1886 25.1684C57.9189 25.0079 60.6064 25.028 62.1907 25.048V23.9851C61.6693 23.9851 61.0877 23.584 60.5261 22.9222ZM50.0171 19.8737L52.3435 15.7022L54.1084 19.8737H50.0171Z" fill="#FD9786"/>
<path d="M46.3266 39.0074V37.1623H47.4096V38.0046H48.2319C48.7332 38.0046 48.8135 37.9845 48.8135 37.5433V37.062C48.7934 36.6408 48.7934 36.6208 48.3121 36.6007H47.6101C47.3895 36.6007 47.1288 36.5806 46.8881 36.4403C46.3065 36.1194 46.3065 35.5378 46.3266 35.2369V34.535C46.3266 34.2943 46.3266 33.7528 46.828 33.3918C47.1288 33.1913 47.4096 33.1913 47.6703 33.1913H49.8162V34.9762H48.7332V34.174H47.8909C47.57 34.1941 47.4497 34.1941 47.4698 34.6353V35.0765C47.4698 35.4977 47.57 35.5177 47.9711 35.5177H48.5929C48.8335 35.5177 49.1745 35.5177 49.4552 35.6982C49.9366 35.999 49.9566 36.5004 49.9566 36.8815V37.5834C49.9566 37.9043 49.9366 38.145 49.7761 38.4258C49.4552 38.9071 49.014 38.9271 48.5929 38.9672L46.3266 39.0074Z" fill="#FD9786"/>
<path d="M51.2803 39.0266V38.0439H51.7416V34.2133H51.2803V33.2306H53.8273C55.0708 33.2306 55.2111 33.8323 55.2111 34.4941V35.2361C55.2312 35.7375 55.1109 36.0985 54.8903 36.3191C54.6696 36.5397 54.3488 36.64 53.8474 36.64H52.8245V38.0439H53.2858V39.0266H51.2803ZM53.707 35.6372C54.068 35.6372 54.1281 35.5971 54.1482 35.1158V34.6545C54.1281 34.2935 54.1081 34.2534 53.6869 34.2334H52.8647V35.6172L53.707 35.6372Z" fill="#FD9786"/>
<path d="M57.8585 39.1269C57.4374 39.1269 56.8558 39.1269 56.5549 38.5052C56.4547 38.2645 56.4346 38.1041 56.4146 37.3821V35.0556C56.4346 34.2534 56.4346 34.1531 56.5549 33.8724C56.8558 33.2506 57.4975 33.2506 57.7783 33.2506H58.8011C59.463 33.2506 60.185 33.3509 60.185 34.7147V37.6829C60.185 38.0238 60.185 38.4851 59.7839 38.8261C59.463 39.1068 59.122 39.1068 58.761 39.1068H57.9187L57.8786 38.9865L57.8585 39.1269ZM58.1594 34.2334C57.5978 34.2334 57.5577 34.2334 57.5577 35.0155V37.4422C57.5577 38.1041 57.5577 38.1241 57.9989 38.1442H58.6006C59.0218 38.1442 59.0418 38.0439 59.0418 37.4422V35.0155C59.0619 34.2935 59.0017 34.2735 58.4803 34.2534L58.1594 34.2334Z" fill="#FD9786"/>
<path d="M64.4164 39.1671V37.2016C64.4164 36.8206 64.3362 36.7604 63.8949 36.7604H63.0727V39.1671H61.4883V38.1843H61.9496V34.3537H61.4883V33.371H64.0554C64.8977 33.4111 65.4593 33.6318 65.4593 34.7549V35.3164C65.4392 35.7777 65.3389 36.0384 65.0782 36.2189C65.4994 36.3794 65.5395 36.7203 65.5395 37.1615V38.2044H66.0208V39.1871H64.4164V39.1671ZM63.8348 35.7576C64.3361 35.7576 64.3361 35.6574 64.3361 35.3164V34.7749C64.3361 34.4741 64.276 34.3337 63.8749 34.3337H63.0927V35.7576H63.8348V35.7576Z" fill="#FD9786"/>
<path d="M68.0665 39.2272V38.2646H68.5478V34.4139H67.9863V35.2362H66.9233V33.4312H71.2553V35.2362H70.2124V34.4139H69.6509V38.2646H70.1122V39.2272H68.0665Z" fill="#FD9786"/>
<path d="M72.5391 39.2271V37.382H73.6221V38.2244H74.4443C74.9457 38.2244 75.0259 38.2043 75.0259 37.7631V37.2818C75.0059 36.8606 75.0059 36.8406 74.5446 36.8205H73.8427C73.6221 36.8205 73.3613 36.8004 73.1207 36.66C72.5391 36.3392 72.5391 35.7576 72.5391 35.4567V34.7548C72.5391 34.5141 72.5391 33.9726 73.0404 33.6116C73.3413 33.4111 73.6221 33.4111 73.8828 33.4111H76.0287V35.196H74.9457V34.4138H74.0833C73.7624 34.4339 73.6421 34.4339 73.6622 34.8751V35.3163C73.6622 35.7375 73.7624 35.7576 74.1636 35.7576H74.7853C75.0259 35.7576 75.3669 35.7576 75.6477 35.9381C76.129 36.2389 76.149 36.7202 76.149 37.1213V37.8433C76.149 38.1642 76.129 38.4049 75.9685 38.6856C75.6477 39.167 75.2064 39.187 74.7853 39.2271H72.5391Z" fill="#FD9786"/>
<path d="M77.675 33.372C77.6951 33.3519 77.7151 33.3519 77.7352 33.3319C77.7553 33.3118 77.7753 33.2918 77.7753 33.2717C77.7954 33.2517 77.7954 33.2316 77.7954 33.1915C77.7954 33.1113 77.7753 33.0712 77.7352 33.031C77.6951 32.9909 77.6349 32.9909 77.5347 32.9909H77.2739V33.6728H77.4143V33.372H77.5146L77.675 33.6728H77.8154L77.6349 33.372C77.6149 33.392 77.655 33.392 77.675 33.372ZM77.3943 33.2918V33.1113H77.4945C77.5146 33.1113 77.5347 33.1113 77.5347 33.1113C77.5547 33.1113 77.5748 33.1113 77.5748 33.1313C77.5948 33.1313 77.6149 33.1514 77.6149 33.1714C77.6349 33.1915 77.6349 33.2115 77.6349 33.2115C77.6349 33.2517 77.6149 33.2717 77.5948 33.2918C77.5547 33.3118 77.5346 33.3118 77.4945 33.3118H77.3943V33.2918Z" fill="#FD9786"/>
<path d="M77.4929 32.7092C77.1319 32.7092 76.8511 33.01 76.8511 33.3509C76.8511 33.6919 77.1519 33.9927 77.4929 33.9927C77.8338 33.9927 78.1346 33.6919 78.1346 33.3509C78.1346 33.01 77.8538 32.7092 77.4929 32.7092ZM77.4929 33.9125C77.192 33.9125 76.9514 33.6718 76.9514 33.371C76.9514 33.0702 77.192 32.8295 77.4929 32.8295C77.7937 32.8295 78.0343 33.0702 78.0343 33.371C78.0343 33.6718 77.8137 33.9125 77.4929 33.9125Z" fill="#FD9786"/>
</svg>
