<svg width="167" height="33" viewBox="0 0 167 33" fill="none" xmlns="http://www.w3.org/2000/svg">
<path fill-rule="evenodd" clip-rule="evenodd" d="M132.047 6.14932H134.124V6.58634H133.369V7.86899H132.812V6.58634H132.047V6.14932ZM134.247 6.14932H135.198L135.708 7.26586L136.22 6.14932H137.166V7.86899H136.648L136.662 6.58191H136.575L135.926 7.86899H135.493L134.844 6.58191H134.752L134.764 7.86899H134.247V6.14932V6.14932Z" fill="#0C8EFF"/>
<path fill-rule="evenodd" clip-rule="evenodd" d="M166.428 12.6789L153.598 12.7482L149.556 0.407593L145.651 12.7482L132.754 12.6789L142.863 20.3473L139.168 32.4774L149.556 25.2274L159.944 32.4774L156.247 20.3473L166.428 12.6789ZM149.625 22.2997L143.351 26.6921L145.582 19.3729L139.517 14.7708L147.256 14.8401L149.626 7.44973L151.996 14.8401L159.666 14.7708L153.599 19.3729L155.831 26.6921L149.625 22.2997ZM73.241 8.98642C71.6368 8.98642 70.4519 9.19516 69.7546 9.75299C68.9179 10.381 68.4995 11.4265 68.4995 12.9596V16.2364C68.4995 17.7713 68.9179 18.815 69.7546 19.443C70.4519 19.9307 71.6368 20.2096 73.241 20.2096H78.6088C80.1428 20.2096 81.1883 19.9307 81.8163 19.2325C82.304 18.7449 82.5829 17.9783 82.5829 16.9319V15.8864H79.2359C79.2359 16.5828 79.0965 16.9319 78.8175 17.1415C78.6079 17.3512 78.1203 17.4205 77.2826 17.4205H73.7971C73.0305 17.4205 72.4727 17.2801 72.2622 16.931C71.9842 16.5819 71.914 16.025 71.914 15.1883V14.0033C71.914 13.2367 72.0534 12.6789 72.2622 12.4C72.6113 11.9825 73.1691 11.7729 73.9357 11.7729H77.5607C78.607 11.7729 79.0947 12.122 79.0947 12.8184V13.0964H82.4417C82.4417 11.4931 82.1627 10.3774 81.5347 9.88978C80.8374 9.26178 79.3736 8.98376 77.1423 8.98376H73.241V8.98642V8.98642ZM95.412 11.844V9.12499H83.2109V11.844H87.7419V20.0719H91.0187V11.844H95.412V11.844ZM110.819 8.98642H105.52C103.917 8.98642 102.73 9.19516 102.035 9.75299C101.197 10.381 100.779 11.4265 100.779 12.9596V16.2364C100.779 17.7713 101.197 18.815 102.035 19.443C102.73 19.9307 103.917 20.2096 105.52 20.2096H110.819C112.422 20.2096 113.609 19.9307 114.306 19.443C115.14 18.815 115.56 17.7704 115.56 16.2364V12.9596C115.56 11.4265 115.14 10.3801 114.306 9.75299C113.609 9.19516 112.422 8.98642 110.819 8.98642V8.98642ZM104.126 15.1909V14.006C104.126 13.2394 104.266 12.6816 104.544 12.4027C104.823 11.9852 105.38 11.7756 106.219 11.7756H110.123C110.889 11.7756 111.448 11.9843 111.797 12.4027C112.005 12.6816 112.146 13.2394 112.146 14.006V15.1909C112.146 16.0277 112.075 16.5846 111.797 16.9337C111.587 17.2828 111.03 17.4231 110.263 17.4231H106.078C105.313 17.4231 104.755 17.2828 104.544 16.9337C104.266 16.5846 104.126 16.0277 104.126 15.1909ZM119.882 12.1238H119.954L126.157 20.0719H130.968V9.12499H127.901V17.074L121.695 9.12499H116.607V20.0719H119.882V12.1238V12.1238ZM99.7334 9.12499H96.597V20.0719H99.7334V9.12499ZM130.55 27.9499L127.342 22.0927H125.111L121.975 27.9499H123.926L124.485 26.9035H128.04L128.598 27.9499H130.55ZM126.228 23.4171L127.342 25.6484H125.111L126.228 23.4171ZM120.859 22.5111C120.51 22.2339 119.953 22.0234 118.977 22.0234H116.536C115.489 22.0234 114.863 22.2331 114.515 22.5821C114.307 22.79 114.166 23.2084 114.166 23.9057C114.166 24.6029 114.376 25.0906 114.654 25.3002L117.164 25.6475L119.256 25.7186C119.463 25.7879 119.605 25.9282 119.605 26.2063C119.605 26.4852 119.395 26.6939 118.907 26.6939H116.745C116.187 26.6939 115.979 26.4861 115.979 25.9984H114.166V26.4168C114.166 27.043 114.376 27.4631 114.725 27.671L116.466 28.0201H118.558L120.859 27.671C121.277 27.4631 121.416 26.9737 121.416 26.137C121.416 25.3002 121.208 24.8117 120.79 24.6029L118.07 24.2539H116.328C116.049 24.1846 115.979 24.0442 115.979 23.7644C115.979 23.4873 116.187 23.2768 116.607 23.2768H118.558C119.185 23.2768 119.464 23.4864 119.464 23.9048H121.208V23.7644C121.208 23.1391 121.067 22.7207 120.859 22.5111V22.5111ZM113.12 22.0927H111.378V25.4397C111.378 26.137 111.029 26.4861 110.401 26.4861H108.588C107.96 26.4861 107.612 26.137 107.612 25.4397V22.0927H105.869V25.8572C105.869 27.2517 106.635 28.0192 108.239 28.0192H110.749C112.352 28.0192 113.119 27.2526 113.119 25.8572V22.0927H113.12V22.0927ZM104.685 24.7424V22.0927H52.5348V24.7424H104.685ZM3.5916 16.3768H11.1907V13.7964H3.5916V11.7045H11.5398V9.12499H0.244629V20.0719H3.5916V16.3768ZM25.8319 9.75299C25.0653 9.19605 23.9497 8.98642 22.3463 8.98642H17.0479C15.4437 8.98642 14.2587 9.19516 13.5614 9.75299C12.7247 10.381 12.3063 11.4265 12.3063 12.9596V16.2364C12.3063 17.7713 12.7247 18.815 13.5614 19.443C14.2587 19.9307 15.4437 20.2096 17.0479 20.2096H22.3463C23.9497 20.2096 25.0653 19.9307 25.8319 19.443C26.6686 18.815 27.087 17.7704 27.087 16.2364V12.9596C27.087 11.4265 26.6686 10.3801 25.8319 9.75299V9.75299ZM16.0717 16.9337C15.7936 16.5846 15.7226 16.0277 15.7226 15.1909V14.006C15.7226 13.2394 15.862 12.6816 16.0717 12.4027C16.4208 11.9852 16.9786 11.7756 17.7451 11.7756H21.6491C22.4165 11.7756 22.9743 11.9843 23.3225 12.4027C23.5313 12.6816 23.6707 13.2394 23.6707 14.006V15.1909C23.6707 16.0277 23.6006 16.5846 23.3225 16.9337C23.1138 17.2828 22.556 17.4231 21.7885 17.4231H17.6057C16.8382 17.4222 16.2804 17.2819 16.0717 16.9337ZM32.9433 8.98642C31.34 8.98642 30.2243 9.19516 29.4578 9.75299C28.621 10.381 28.2026 11.4265 28.2026 12.9596V16.2364C28.2026 17.7713 28.621 18.815 29.4578 19.443C30.2243 19.9307 31.34 20.2096 32.9433 20.2096H38.2418C39.846 20.2096 41.0309 19.9307 41.7273 19.443C42.5641 18.815 42.9824 17.7704 42.9824 16.2364V12.9596C42.9824 11.4265 42.5641 10.3801 41.7273 9.75299C41.03 9.19605 39.8451 8.98642 38.2418 8.98642H32.9433V8.98642ZM31.6189 15.1909V14.006C31.6189 13.2394 31.7584 12.6816 31.968 12.4027C32.3171 11.9852 32.8749 11.7756 33.6415 11.7756H37.5454C38.3128 11.7756 38.9399 11.9843 39.2189 12.4027C39.4978 12.6816 39.6372 13.2394 39.6372 14.006V15.1909C39.6372 16.0277 39.4978 16.5846 39.2881 16.9337C39.0101 17.2828 38.4523 17.4231 37.7541 17.4231H33.5011C32.7346 17.4231 32.1767 17.2828 31.9671 16.9337C31.6882 16.5846 31.6189 16.0277 31.6189 15.1909ZM43.471 9.12499V11.844H47.7932V20.0719H51.07V11.844H55.7414V9.12499H43.471V9.12499ZM57.2053 18.1186H63.8983L64.9438 20.0719H68.639L62.7134 9.12499H58.3902L52.5339 20.0719H56.2291L57.2053 18.1186V18.1186ZM62.7134 15.7488H58.4604L60.5513 11.6361L62.7134 15.7488Z" fill="#0C8EFF"/>
</svg>
