<svg width="118" height="89" viewBox="0 0 118 89" fill="none" xmlns="http://www.w3.org/2000/svg">
<path d="M36.2238 36.4593L36.8422 37.3722C36.1943 38.079 35.2814 38.4913 34.1328 38.668L33.8088 39.0803L33.7499 39.7577L34.5451 42.5554L35.8998 45.0882C36.2827 45.7066 38.3442 47.4147 42.0843 50.2714L43.7041 52.0089L44.8821 52.1267C45.7951 51.361 46.5902 50.9193 47.3559 50.8309L47.5032 47.2086L46.6786 41.7897L46.9436 32.454L47.7682 31.3055C47.5326 32.8958 47.5326 34.1033 47.7093 34.8395V52.1267L48.4456 53.2753L48.8873 45.0293C49.1229 40.6412 49.1524 37.814 49.064 36.5771L48.8873 34.5156L49.1524 32.9841L50.3893 31.3644L49.9181 35.9881L49.1524 54.5417L48.6517 58.2818H50.242L50.9488 47.0908C51.155 40.9946 51.3611 37.0483 51.5673 35.3107C51.6556 34.28 51.9796 32.778 52.4508 30.8343L52.7453 30.422L52.8925 30.8343L52.922 32.0123L52.1268 51.5966L51.6851 54.6595L51.8029 58.2818H53.4226L55.5431 31.8945L56.8683 31.3644L55.1013 58.2818H57.4868L59.1949 31.8945L59.9017 30.9815L60.6379 31.7472L59.401 58.2818H61.4036L61.8454 45.3827L63.2884 46.0011L62.9645 58.2818H65.026V49.8885L65.5856 46.1778C65.8801 46.1778 66.204 45.9717 66.4985 45.5005L65.7623 58.2818H67.0875L68.4717 37.0188C68.5306 34.869 68.2361 32.7485 67.5587 30.7165L68.6484 31.6589L69.4141 37.6962L67.8532 58.2818H69.0607L69.1196 57.4278L70.8866 56.9566C71.9762 56.0142 76.276 53.452 83.8741 49.2406L87.7615 45.2943L87.4376 43.8513L84.5515 39.7282L80.988 36.6654L80.0456 35.4874L75.687 32.3951L70.1503 29.8919C69.2079 29.4207 67.8827 28.9789 66.1746 28.4783L65.7328 28.1838L63.8774 27.5064C62.4933 27.1236 62.6405 26.7702 64.2898 26.3284C65.1733 26.0339 65.615 25.71 65.6739 25.2977C65.6739 24.9737 65.5267 24.6203 65.2616 24.2964L65.3205 23.7662L65.9095 22.7649C65.7328 22.1759 65.6739 21.6164 65.6739 21.0568L66.4396 20.6445L66.6752 20.1439L66.4985 19.6727L65.35 18.7008C65.3794 18.0824 65.3205 17.3461 65.0555 16.5804L64.7021 15.4024C64.6432 15.1079 64.9082 14.4011 65.4678 13.2525L64.8493 11.4266L64.3781 10.9849L62.67 11.0438C62.1399 10.5726 61.2564 10.3075 59.9606 10.1897L57.5751 10.6904L55.5431 10.8671L54.3945 11.8095L52.8631 12.6341C52.333 13.7237 51.8323 14.3422 51.2433 14.5189L50.4776 16.6393L52.0974 22.5588L53.5404 24.6203L54.2767 25.2977V26.564H53.9233L52.0974 28.0071L46.6786 28.7728L40.0523 32.1595L30.4515 38.403L29.5975 39.846L29.5386 42.2609L31.2467 45.5888L34.1328 48.5338C37.9319 50.8898 41.7309 53.187 45.53 55.4546L46.3841 56.4265L45.7656 58.164H47.886C48.21 57.3689 48.3572 56.5443 48.3278 55.6902C48.3278 55.0423 48.1511 54.4239 47.7682 53.8349H45.1766L43.5568 53.0692C42.6144 52.3329 41.4364 51.5966 40.1112 50.8309C38.8448 50.0947 37.5785 49.2112 36.2532 48.2688C33.8972 46.4134 32.248 44.6464 31.335 42.9677L31.0111 41.6719L31.07 40.1994L31.4823 39.4043L33.102 37.8434L35.8115 36.312L36.2238 36.4593ZM38.9921 37.4606V36.9305L45.8245 32.8074L45.854 33.3965L40.1701 37.5784L39.4927 37.814L38.9921 37.4606ZM38.1086 35.1046L37.9613 34.6334L46.2074 30.2158L45.7951 30.9815L40.2879 34.1916L38.1086 35.1046ZM45.9129 36.6065L45.6773 37.0483L41.1714 39.6988L40.9358 40.0816L40.7002 39.6988L40.8474 39.257L44.8232 36.1353L45.854 36.047L45.9129 36.6065ZM45.265 39.257C45.3533 40.6117 45.4711 41.9075 45.6478 43.1739L46.5019 50.0063L45.854 50.183L44.9705 50.2419C43.6452 49.1228 42.4083 47.8859 41.2597 46.5018C40.3173 45.2649 39.4633 43.9691 38.7565 42.5554L38.9626 42.202C40.1112 41.4363 41.3186 40.759 42.5261 40.0816C43.3212 39.6988 44.1753 39.3159 45.0588 38.992L45.265 39.257ZM77.2184 37.6962L77.1595 38.1379L76.3054 37.9612L71.7112 35.1046H70.9749L70.2092 34.4861L69.9736 33.5437C70.7393 33.7793 71.4756 34.1033 72.1529 34.4861L77.2184 37.6962ZM78.3964 36.3415L77.2184 35.9586L72.3002 32.5424C70.8571 31.9239 70.0914 31.6294 69.9442 31.6294L69.8558 30.9226L71.4167 31.1288L78.7792 36.1059L78.3964 36.3415ZM63.7302 17.0516L63.4946 17.3756L61.4625 18.2885L61.9337 19.0837L63.7891 19.4076L64.9377 19.172L65.7917 19.9083L65.0555 20.4384L64.4665 20.674L65.0555 21.3219V21.6164L64.1131 21.8225L63.4946 22.4704L63.5535 23.03L64.4076 22.8238L64.761 22.7944L64.9082 23.03L64.2898 23.3245C64.2014 23.3245 64.0542 23.5306 63.9069 24.0019H64.1719L64.5254 24.6792C64.5843 24.8854 64.3487 25.0326 63.9658 25.121L61.2564 24.6203L58.3703 24.6792L57.2512 25.3566V25.8278L58.7237 27.0352L58.6059 29.0673C58.6059 29.3618 58.3703 29.3029 57.8402 28.9789L55.013 27.2119L55.0719 25.5038L55.4253 25.4449L56.191 22.0876L55.1897 20.7918L55.0719 19.2604L55.5725 18.7008L56.6033 18.5241L57.8696 19.6138H58.547L58.8415 18.318L61.5509 16.6099H63.4062L63.7302 17.0516ZM57.5457 32.3657C57.5457 32.1595 57.6635 32.0417 57.8991 32.0417C58.1052 32.0417 58.223 32.1595 58.223 32.3657C58.223 32.6307 58.1347 32.7191 57.8991 32.7191C57.6635 32.7191 57.5457 32.6307 57.5457 32.3657ZM58.0463 36.5476C58.0463 36.8127 57.9285 36.9305 57.6929 36.9305C57.4573 36.9305 57.3101 36.8127 57.3101 36.5476C57.3101 36.312 57.4573 36.1942 57.6929 36.1942C57.9285 36.1942 58.0463 36.312 58.0463 36.5476ZM62.7289 31.7767L62.9645 31.7178L63.9069 33.691L63.9658 35.0457L63.7891 38.1085H62.2282L62.7289 31.7767ZM65.7623 32.7191L66.793 32.0417L66.6163 38.1379H65.615L65.7623 32.7191ZM75.5986 39.5221L75.952 40.17L75.3336 40.6117L72.2118 39.0214L70.5626 36.3709L75.5986 39.5221ZM71.7701 42.5554L71.9173 41.024C72.5358 41.2007 73.0659 41.4069 73.5666 41.7014C75.2747 42.7027 76.8944 43.7335 78.4553 44.882C76.6588 46.7374 74.8035 48.4749 72.7714 50.0358C71.7701 50.8604 70.6804 51.5377 69.473 52.0384L70.5037 48.9756L71.7701 42.5554ZM70.3565 40.9357L70.327 38.7269C70.327 38.3441 70.4743 38.2557 70.7688 38.5208C70.8866 38.7269 71.0044 39.1687 71.0338 39.9049L70.5921 43.9985L69.9147 46.8552L70.3565 40.9357ZM66.9403 39.846V40.1994H62.2577V39.846H66.9403ZM66.9403 38.8153V39.257H62.2577V38.8153H66.9403L69.473 54.8656L69.5024 52.7452L71.7995 52.4802L80.0161 44.9998L77.3067 42.2315L79.0737 39.6988L79.7805 39.7577L83.2557 44.2636L83.0495 45.1765C81.2236 46.8846 79.3093 48.4749 77.2184 49.918C74.6857 51.7144 72.1529 53.3931 69.473 54.8656L66.9403 38.8153ZM56.7505 19.0837L55.6609 19.0542L55.3958 19.5843L55.5725 19.9966L55.9848 19.9377L56.2204 20.3795L56.5738 20.7918L56.9272 20.7623L57.1039 19.9083L56.7505 19.0837Z" fill="#8E4AFF"/>
<path d="M40.2287 63.4944H36.0762V67.2641H34.3681V71.0042H36.0762V76.3936C36.0762 76.9237 36.2824 77.4244 36.6947 77.8367C37.1659 78.2195 37.6371 78.4257 38.1967 78.4257H42.6436V74.7149H41.2006C40.5821 74.7149 40.2876 74.3615 40.2876 73.7136V71.0042H41.8779V67.2641H40.2876L40.2287 63.4944ZM55.0716 62.4931H50.9191V76.4231C50.9191 77.7778 51.567 78.4257 52.9512 78.4257H59.1357V74.7149H56.0435C55.425 74.7149 55.0716 74.3615 55.0716 73.7136V62.4931ZM110.556 66.999C109.172 66.999 108.494 67.6469 108.494 69.0311V78.4257H112.647V71.6521C112.647 71.0337 112.971 70.7392 113.589 70.7392H115.768V66.999H110.556V66.999ZM3.59273 62.4931C3.00373 62.4931 2.53253 62.6993 2.06132 63.1116C1.67847 63.5239 1.44287 64.0245 1.44287 64.6135V78.4257H5.65424V72.7418H7.89245V69.0016H5.65424V67.2052C5.65424 66.5278 6.00764 66.2039 6.59665 66.2039H9.71836V62.4637H3.59273V62.4931ZM18.9657 68.5304C17.8172 67.3819 16.433 66.8223 14.8721 66.8223C13.1935 66.8223 11.8388 67.3819 10.7197 68.5304C9.57111 69.679 8.98211 71.0926 8.98211 72.6829C8.98211 74.3615 9.57111 75.7162 10.7197 76.8354C11.8682 77.9839 13.2524 78.6024 14.8721 78.6024C16.433 78.6024 17.8172 77.9839 18.9657 76.8354C20.1143 75.6868 20.7033 74.3026 20.7033 72.6829C20.7033 71.0926 20.1143 69.7084 18.9657 68.5304ZM13.1051 72.6829C13.1051 71.5638 13.7236 71.0042 14.8721 71.0042C15.9912 71.0042 16.5802 71.5638 16.5802 72.6829C16.5802 73.8314 15.9912 74.391 14.8721 74.391C13.6941 74.3615 13.1051 73.802 13.1051 72.6829ZM31.8354 68.5304C30.6869 67.3819 29.3027 66.8223 27.7419 66.8223C26.0926 66.8223 24.7085 67.3819 23.5894 68.5304C22.4408 69.679 21.8518 71.0926 21.8518 72.6829C21.8518 74.3615 22.4408 75.7162 23.5894 76.8354C24.7379 77.9839 26.1221 78.6024 27.7419 78.6024C29.3027 78.6024 30.6869 77.9839 31.8354 76.8354C32.984 75.6868 33.573 74.3026 33.573 72.6829C33.573 71.0926 33.0134 69.7084 31.8354 68.5304ZM25.9748 72.6829C25.9748 71.5638 26.5933 71.0042 27.7419 71.0042C28.8904 71.0042 29.45 71.5638 29.45 72.6829C29.45 73.8314 28.8904 74.391 27.7419 74.391C26.5933 74.3615 25.9748 73.802 25.9748 72.6829ZM70.0912 68.5304C68.9426 67.3819 67.5585 66.8223 65.9387 66.8223C64.3189 66.8223 62.9642 67.3819 61.7862 68.5304C60.6377 69.679 60.0781 71.0926 60.0781 72.6829C60.0781 74.3615 60.6377 75.7162 61.7862 76.8354C62.9348 77.9839 64.3189 78.6024 65.9387 78.6024C67.5879 78.6024 68.9721 77.9839 70.0912 76.8354C71.2692 75.6868 71.7993 74.3321 71.7993 72.6829C71.7993 71.0926 71.2397 69.7084 70.0912 68.5304ZM64.7312 71.5049C65.0847 71.1809 65.4675 71.0337 65.9093 71.0337C67.0578 71.0337 67.6174 71.5932 67.6174 72.7123C67.6174 73.8609 67.0578 74.4204 65.9093 74.4204C64.7607 74.4204 64.2306 73.8609 64.2306 72.7123C64.26 72.2706 64.4073 71.8877 64.7312 71.5049ZM74.8327 68.5304C73.6841 69.679 73.0951 71.0926 73.0951 72.6829C73.0951 74.3615 73.6841 75.7162 74.8327 76.8354C75.9812 77.9839 77.3654 78.6024 78.9851 78.6024C81.0761 78.6024 82.7253 77.6894 83.9033 75.893L80.3693 73.6253C80.0159 74.1259 79.6036 74.3615 78.9851 74.3615C77.8071 74.3615 77.2181 73.802 77.2181 72.6534C77.2181 71.5343 77.8366 70.9748 78.9851 70.9748C79.6036 70.9748 80.0159 71.2398 80.3693 71.7699L83.9033 69.5023C82.7253 67.7058 81.0761 66.7929 78.9851 66.7929C77.3359 66.8518 75.9812 67.4113 74.8327 68.5304ZM115.238 76.2464C114.531 76.2464 114.178 76.5998 114.178 77.336C114.178 78.0723 114.531 78.4257 115.238 78.4257C115.975 78.4257 116.328 78.0723 116.328 77.336C116.328 76.5998 115.975 76.2464 115.238 76.2464ZM114.355 77.336C114.355 76.747 114.62 76.4525 115.238 76.4525C115.857 76.4525 116.151 76.7765 116.151 77.336C116.151 77.9545 115.827 78.249 115.238 78.249C114.62 78.249 114.355 77.925 114.355 77.336ZM115.798 77.071C115.798 76.8354 115.68 76.7176 115.386 76.7176H114.826V77.8956H115.003V77.3655H115.209L115.562 77.8956H115.798L115.415 77.3655C115.68 77.3949 115.798 77.3066 115.798 77.071ZM115.003 77.2182V76.8943H115.327L115.651 76.9826C115.651 77.1299 115.503 77.1888 115.238 77.1888H115.003V77.2182ZM89.0865 70.2974V62.4637H84.8752V78.3962H89.0865V75.0389L91.8843 78.3962H96.7436L91.7959 72.4767L95.7128 67.6764H91.1775L89.0865 70.2974ZM107.346 72.2411C107.346 71.2693 106.963 70.2385 106.168 69.09C105.137 67.6764 103.753 66.9107 101.897 66.8223C99.6591 66.7045 97.951 67.4702 96.7141 69.2078C95.9484 70.268 95.5656 71.446 95.5656 72.6829C95.5656 74.3615 96.184 75.7162 97.3326 76.8354C98.4811 77.9839 99.8653 78.6024 101.485 78.6024C102.84 78.6024 104.047 78.2195 105.078 77.3949L106.492 75.893L103.105 73.7136L102.692 74.1848C102.133 74.656 101.514 74.7444 100.837 74.5088L99.9831 73.8609L107.346 72.2411ZM100.896 70.7981C101.721 70.5625 102.369 70.7686 102.899 71.4165L99.6297 72.1528C99.8653 71.5049 100.248 71.0926 100.896 70.7981Z" fill="#8E4AFF"/>
</svg>
