<svg width="614" height="526" viewBox="0 0 614 526" fill="none" xmlns="http://www.w3.org/2000/svg">
<ellipse cx="269" cy="243" rx="269" ry="243" fill="url(#paint0_radial)"/>
<ellipse cx="386" cy="320" rx="228" ry="206" fill="url(#paint1_radial)"/>
<rect x="227.5" y="98.5" width="250" height="288" rx="11.5" stroke="#282D54"/>
<g filter="url(#filter0_d)">
<rect x="238" y="109" width="229" height="267" rx="6" fill="#111433"/>
</g>
<rect x="144" y="272" width="224" height="164" rx="11" fill="url(#paint2_linear)"/>
<g filter="url(#filter1_d)">
<rect x="161.8" y="187.6" width="272.4" height="58.8" rx="4.2" fill="#171B3E" stroke="url(#paint3_linear)" stroke-width="1.2"/>
<path d="M220.708 212.948V215.552H224.824V217.484H220.708V221.6H218.692V211.016H225.748V212.948H220.708ZM228.174 217.736C228.174 218.374 228.358 218.884 228.728 219.265C229.098 219.646 229.557 219.836 230.106 219.836C230.654 219.836 231.114 219.646 231.483 219.265C231.853 218.884 232.038 218.374 232.038 217.736C232.038 217.098 231.853 216.588 231.483 216.207C231.114 215.826 230.654 215.636 230.106 215.636C229.557 215.636 229.098 215.826 228.728 216.207C228.358 216.588 228.174 217.098 228.174 217.736ZM233.97 217.736C233.97 218.285 233.863 218.8 233.65 219.282C233.449 219.752 233.169 220.166 232.81 220.525C232.463 220.883 232.054 221.169 231.584 221.382C231.125 221.583 230.632 221.684 230.106 221.684C229.579 221.684 229.081 221.583 228.61 221.382C228.151 221.169 227.742 220.883 227.384 220.525C227.037 220.166 226.757 219.752 226.544 219.282C226.342 218.8 226.242 218.285 226.242 217.736C226.242 217.187 226.342 216.678 226.544 216.207C226.757 215.726 227.037 215.306 227.384 214.947C227.742 214.589 228.151 214.309 228.61 214.107C229.081 213.894 229.579 213.788 230.106 213.788C230.632 213.788 231.125 213.894 231.584 214.107C232.054 214.309 232.463 214.589 232.81 214.947C233.169 215.306 233.449 215.726 233.65 216.207C233.863 216.678 233.97 217.187 233.97 217.736ZM236.902 217.736C236.902 218.374 237.087 218.884 237.456 219.265C237.826 219.646 238.285 219.836 238.834 219.836C239.383 219.836 239.842 219.646 240.211 219.265C240.581 218.884 240.766 218.374 240.766 217.736C240.766 217.098 240.581 216.588 240.211 216.207C239.842 215.826 239.383 215.636 238.834 215.636C238.285 215.636 237.826 215.826 237.456 216.207C237.087 216.588 236.902 217.098 236.902 217.736ZM242.698 217.736C242.698 218.285 242.591 218.8 242.379 219.282C242.177 219.752 241.897 220.166 241.539 220.525C241.191 220.883 240.783 221.169 240.312 221.382C239.853 221.583 239.36 221.684 238.834 221.684C238.307 221.684 237.809 221.583 237.339 221.382C236.879 221.169 236.471 220.883 236.112 220.525C235.765 220.166 235.485 219.752 235.272 219.282C235.071 218.8 234.97 218.285 234.97 217.736C234.97 217.187 235.071 216.678 235.272 216.207C235.485 215.726 235.765 215.306 236.112 214.947C236.471 214.589 236.879 214.309 237.339 214.107C237.809 213.894 238.307 213.788 238.834 213.788C239.36 213.788 239.853 213.894 240.312 214.107C240.783 214.309 241.191 214.589 241.539 214.947C241.897 215.306 242.177 215.726 242.379 216.207C242.591 216.678 242.698 217.187 242.698 217.736ZM244.958 212.024H246.638V213.872H248.318V215.636H246.638V218.828C246.638 219.164 246.733 219.433 246.923 219.634C247.125 219.825 247.394 219.92 247.73 219.92C247.819 219.92 247.892 219.92 247.948 219.92C248.004 219.909 248.055 219.898 248.099 219.886C248.144 219.875 248.189 219.858 248.234 219.836V221.516C248.155 221.55 248.066 221.578 247.965 221.6C247.775 221.656 247.556 221.684 247.31 221.684C246.929 221.684 246.576 221.622 246.251 221.499C245.938 221.365 245.663 221.174 245.428 220.928C245.204 220.682 245.025 220.39 244.891 220.054C244.767 219.718 244.706 219.338 244.706 218.912V215.636H243.53V214.04H244.034C244.65 214.04 244.958 213.732 244.958 213.116V212.024ZM251.841 221.6H249.909V211.016H251.841V221.6ZM255.195 217.736C255.195 218.374 255.379 218.884 255.749 219.265C256.119 219.646 256.578 219.836 257.127 219.836C257.675 219.836 258.135 219.646 258.504 219.265C258.874 218.884 259.059 218.374 259.059 217.736C259.059 217.098 258.874 216.588 258.504 216.207C258.135 215.826 257.675 215.636 257.127 215.636C256.578 215.636 256.119 215.826 255.749 216.207C255.379 216.588 255.195 217.098 255.195 217.736ZM260.991 217.736C260.991 218.285 260.884 218.8 260.671 219.282C260.47 219.752 260.19 220.166 259.831 220.525C259.484 220.883 259.075 221.169 258.605 221.382C258.146 221.583 257.653 221.684 257.127 221.684C256.6 221.684 256.102 221.583 255.631 221.382C255.172 221.169 254.763 220.883 254.405 220.525C254.058 220.166 253.778 219.752 253.565 219.282C253.363 218.8 253.263 218.285 253.263 217.736C253.263 217.187 253.363 216.678 253.565 216.207C253.778 215.726 254.058 215.306 254.405 214.947C254.763 214.589 255.172 214.309 255.631 214.107C256.102 213.894 256.6 213.788 257.127 213.788C257.653 213.788 258.146 213.894 258.605 214.107C259.075 214.309 259.484 214.589 259.831 214.947C260.19 215.306 260.47 215.726 260.671 216.207C260.884 216.678 260.991 217.187 260.991 217.736ZM269.467 218.744C269.377 219.125 269.226 219.494 269.013 219.853C268.8 220.2 268.537 220.514 268.224 220.794C267.91 221.062 267.552 221.281 267.148 221.449C266.745 221.606 266.314 221.684 265.855 221.684C265.328 221.684 264.83 221.583 264.36 221.382C263.9 221.169 263.492 220.883 263.133 220.525C262.786 220.166 262.506 219.752 262.293 219.282C262.092 218.8 261.991 218.285 261.991 217.736C261.991 217.187 262.092 216.678 262.293 216.207C262.506 215.726 262.786 215.306 263.133 214.947C263.492 214.589 263.9 214.309 264.36 214.107C264.83 213.894 265.328 213.788 265.855 213.788C266.314 213.788 266.745 213.872 267.148 214.04C267.552 214.197 267.91 214.415 268.224 214.695C268.537 214.964 268.8 215.278 269.013 215.636C269.226 215.983 269.377 216.347 269.467 216.728H267.535C267.445 216.526 267.322 216.347 267.165 216.19C267.031 216.056 266.857 215.933 266.644 215.821C266.432 215.698 266.168 215.636 265.855 215.636C265.306 215.636 264.847 215.826 264.477 216.207C264.108 216.588 263.923 217.098 263.923 217.736C263.923 218.374 264.108 218.884 264.477 219.265C264.847 219.646 265.306 219.836 265.855 219.836C266.168 219.836 266.432 219.78 266.644 219.668C266.857 219.556 267.031 219.433 267.165 219.298C267.322 219.142 267.445 218.957 267.535 218.744H269.467ZM275.431 221.6L272.743 218.072V221.6H270.811V211.016H272.743V217.064L275.095 213.872H277.279L274.507 217.568L277.615 221.6H275.431ZM285.098 219.248C284.997 219.539 284.84 219.83 284.628 220.122C284.426 220.413 284.174 220.676 283.872 220.911C283.58 221.135 283.244 221.32 282.864 221.466C282.494 221.611 282.091 221.684 281.654 221.684C281.128 221.684 280.629 221.583 280.159 221.382C279.7 221.169 279.291 220.883 278.932 220.525C278.585 220.166 278.305 219.752 278.092 219.282C277.891 218.8 277.79 218.285 277.79 217.736C277.79 217.187 277.891 216.678 278.092 216.207C278.305 215.726 278.585 215.306 278.932 214.947C279.291 214.589 279.7 214.309 280.159 214.107C280.629 213.894 281.128 213.788 281.654 213.788C282.158 213.788 282.634 213.883 283.082 214.074C283.53 214.264 283.922 214.533 284.258 214.88C284.594 215.227 284.857 215.647 285.048 216.14C285.249 216.622 285.35 217.154 285.35 217.736C285.35 217.826 285.344 217.915 285.333 218.005C285.322 218.083 285.311 218.162 285.3 218.24C285.288 218.33 285.277 218.414 285.266 218.492H279.89C279.98 218.873 280.17 219.192 280.461 219.45C280.752 219.707 281.15 219.836 281.654 219.836C281.912 219.836 282.124 219.808 282.292 219.752C282.472 219.696 282.623 219.629 282.746 219.55C282.88 219.461 282.992 219.36 283.082 219.248H285.098ZM281.654 215.636C281.15 215.636 280.736 215.782 280.411 216.073C280.097 216.364 279.896 216.722 279.806 217.148H283.502C283.412 216.722 283.205 216.364 282.88 216.073C282.567 215.782 282.158 215.636 281.654 215.636ZM290.386 213.788C290.476 213.788 290.554 213.794 290.621 213.805C290.689 213.816 290.75 213.827 290.806 213.838C290.862 213.85 290.918 213.861 290.974 213.872V215.888C290.918 215.877 290.857 215.866 290.789 215.854C290.733 215.843 290.661 215.832 290.571 215.821C290.493 215.81 290.403 215.804 290.302 215.804C289.832 215.804 289.445 215.961 289.143 216.274C288.852 216.577 288.706 216.98 288.706 217.484V221.6H286.774V213.872H288.202L288.538 214.712C288.673 214.544 288.835 214.393 289.025 214.258C289.182 214.135 289.373 214.029 289.597 213.939C289.832 213.838 290.095 213.788 290.386 213.788ZM297.103 221.6H295.003L298.951 211.016H300.799L304.747 221.6H302.647L301.891 219.416H297.859L297.103 221.6ZM301.219 217.568L299.875 213.704L298.531 217.568H301.219ZM311.724 211.016V218.324C311.724 218.828 311.64 219.287 311.472 219.702C311.315 220.116 311.086 220.469 310.783 220.76C310.492 221.051 310.134 221.281 309.708 221.449C309.282 221.606 308.806 221.684 308.28 221.684C307.754 221.684 307.278 221.606 306.852 221.449C306.426 221.281 306.062 221.051 305.76 220.76C305.469 220.469 305.239 220.116 305.071 219.702C304.914 219.287 304.836 218.828 304.836 218.324H306.852C306.852 218.75 306.981 219.097 307.238 219.366C307.507 219.623 307.854 219.752 308.28 219.752C308.706 219.752 309.047 219.623 309.305 219.366C309.574 219.097 309.708 218.75 309.708 218.324V211.016H311.724ZM317.358 211.016V221.6H315.342V213.62L314.082 214.46L313.074 212.948L315.846 211.016H317.358Z" fill="white"/>
<path d="M336.136 211.016V221.6H334.12V213.62L332.86 214.46L331.852 212.948L334.624 211.016H336.136ZM344.955 219.668V221.6H337.899V220.172L341.763 216.14C341.976 215.927 342.172 215.709 342.351 215.485C342.497 215.294 342.631 215.082 342.755 214.846C342.878 214.6 342.939 214.359 342.939 214.124C342.939 213.698 342.811 213.368 342.553 213.133C342.307 212.898 341.931 212.78 341.427 212.78C340.923 212.78 340.531 212.914 340.251 213.183C339.971 213.452 339.831 213.822 339.831 214.292H337.815C337.815 213.81 337.899 213.368 338.067 212.965C338.247 212.55 338.493 212.192 338.807 211.89C339.12 211.587 339.495 211.352 339.932 211.184C340.38 211.016 340.879 210.932 341.427 210.932C341.999 210.932 342.503 211.01 342.939 211.167C343.387 211.324 343.768 211.542 344.082 211.822C344.395 212.102 344.631 212.433 344.787 212.814C344.955 213.194 345.039 213.603 345.039 214.04C345.039 214.443 344.939 214.841 344.737 215.233C344.535 215.614 344.311 215.961 344.065 216.274C343.774 216.644 343.455 216.991 343.107 217.316L340.839 219.668H344.955ZM348.397 216.308C348.397 216.879 348.465 217.378 348.599 217.803C348.733 218.229 348.907 218.587 349.12 218.878C349.344 219.17 349.596 219.388 349.876 219.534C350.167 219.679 350.458 219.752 350.749 219.752C351.041 219.752 351.326 219.679 351.606 219.534C351.897 219.388 352.149 219.17 352.362 218.878C352.586 218.587 352.765 218.229 352.9 217.803C353.034 217.378 353.101 216.879 353.101 216.308C353.101 215.737 353.034 215.238 352.9 214.813C352.765 214.387 352.586 214.029 352.362 213.738C352.149 213.446 351.897 213.228 351.606 213.082C351.326 212.937 351.041 212.864 350.749 212.864C350.458 212.864 350.167 212.937 349.876 213.082C349.596 213.228 349.344 213.446 349.12 213.738C348.907 214.029 348.733 214.387 348.599 214.813C348.465 215.238 348.397 215.737 348.397 216.308ZM355.117 216.308C355.117 217.148 355 217.904 354.765 218.576C354.529 219.237 354.21 219.797 353.807 220.256C353.415 220.715 352.95 221.068 352.413 221.314C351.886 221.561 351.332 221.684 350.749 221.684C350.156 221.684 349.596 221.561 349.069 221.314C348.543 221.068 348.078 220.715 347.675 220.256C347.283 219.797 346.969 219.237 346.734 218.576C346.499 217.904 346.381 217.148 346.381 216.308C346.381 215.468 346.499 214.718 346.734 214.057C346.969 213.385 347.283 212.819 347.675 212.36C348.078 211.901 348.543 211.548 349.069 211.302C349.596 211.055 350.156 210.932 350.749 210.932C351.332 210.932 351.886 211.055 352.413 211.302C352.95 211.548 353.415 211.901 353.807 212.36C354.21 212.819 354.529 213.385 354.765 214.057C355 214.718 355.117 215.468 355.117 216.308Z" fill="#747792"/>
<path d="M203.275 225.325H187.525C186.839 225.333 186.178 225.07 185.686 224.591C185.194 224.113 184.911 223.459 184.9 222.773V210.026C184.911 209.34 185.194 208.687 185.686 208.208C186.178 207.73 186.839 207.467 187.525 207.475H192.355C192.51 207.476 192.663 207.511 192.803 207.578C192.943 207.646 193.066 207.743 193.164 207.863L195.894 211.202H203.244C203.586 211.194 203.927 211.254 204.246 211.378C204.565 211.502 204.857 211.687 205.104 211.925C205.351 212.162 205.548 212.446 205.685 212.76C205.822 213.074 205.895 213.412 205.9 213.754V222.773C205.889 223.459 205.607 224.113 205.115 224.591C204.623 225.07 203.961 225.333 203.275 225.325V225.325Z" fill="url(#paint4_linear)"/>
<path d="M413.2 211H409.2V209.664C409.182 209.152 408.961 208.668 408.586 208.319C408.211 207.969 407.713 207.783 407.2 207.8H404.8C404.288 207.783 403.79 207.969 403.415 208.319C403.04 208.668 402.819 209.152 402.8 209.664V211H398.8C398.588 211 398.385 211.084 398.235 211.234C398.085 211.385 398 211.588 398 211.8C398 212.012 398.085 212.216 398.235 212.366C398.385 212.516 398.588 212.6 398.8 212.6H399.6V221.4C399.6 222.037 399.853 222.647 400.303 223.097C400.754 223.547 401.364 223.8 402 223.8H410C410.637 223.8 411.247 223.547 411.698 223.097C412.148 222.647 412.4 222.037 412.4 221.4V212.6H413.2C413.413 212.6 413.616 212.516 413.766 212.366C413.916 212.216 414 212.012 414 211.8C414 211.588 413.916 211.385 413.766 211.234C413.616 211.084 413.413 211 413.2 211ZM404.4 209.664C404.4 209.536 404.568 209.4 404.8 209.4H407.2C407.432 209.4 407.6 209.536 407.6 209.664V211H404.4V209.664Z" fill="#FF3156"/>
</g>
<g filter="url(#filter2_d)">
<rect x="174.88" y="253" width="246.24" height="54" rx="4.32" fill="#171B3E"/>
<path d="M228.437 276.653V278.997H232.141V280.736H228.437V284.44H226.622V274.914H232.973V276.653H228.437ZM235.156 280.962C235.156 281.537 235.322 281.996 235.655 282.338C235.987 282.681 236.401 282.852 236.895 282.852C237.389 282.852 237.802 282.681 238.134 282.338C238.467 281.996 238.633 281.537 238.633 280.962C238.633 280.388 238.467 279.929 238.134 279.586C237.802 279.244 237.389 279.072 236.895 279.072C236.401 279.072 235.987 279.244 235.655 279.586C235.322 279.929 235.156 280.388 235.156 280.962ZM240.372 280.962C240.372 281.456 240.276 281.92 240.085 282.353C239.903 282.777 239.651 283.15 239.329 283.472C239.016 283.795 238.649 284.052 238.225 284.243C237.812 284.425 237.368 284.516 236.895 284.516C236.421 284.516 235.972 284.425 235.549 284.243C235.136 284.052 234.768 283.795 234.445 283.472C234.133 283.15 233.881 282.777 233.689 282.353C233.508 281.92 233.417 281.456 233.417 280.962C233.417 280.468 233.508 280.01 233.689 279.586C233.881 279.153 234.133 278.775 234.445 278.452C234.768 278.13 235.136 277.878 235.549 277.696C235.972 277.505 236.421 277.409 236.895 277.409C237.368 277.409 237.812 277.505 238.225 277.696C238.649 277.878 239.016 278.13 239.329 278.452C239.651 278.775 239.903 279.153 240.085 279.586C240.276 280.01 240.372 280.468 240.372 280.962ZM243.011 280.962C243.011 281.537 243.177 281.996 243.51 282.338C243.843 282.681 244.256 282.852 244.75 282.852C245.244 282.852 245.657 282.681 245.99 282.338C246.322 281.996 246.489 281.537 246.489 280.962C246.489 280.388 246.322 279.929 245.99 279.586C245.657 279.244 245.244 279.072 244.75 279.072C244.256 279.072 243.843 279.244 243.51 279.586C243.177 279.929 243.011 280.388 243.011 280.962ZM248.228 280.962C248.228 281.456 248.132 281.92 247.94 282.353C247.759 282.777 247.507 283.15 247.184 283.472C246.872 283.795 246.504 284.052 246.08 284.243C245.667 284.425 245.224 284.516 244.75 284.516C244.276 284.516 243.828 284.425 243.404 284.243C242.991 284.052 242.623 283.795 242.3 283.472C241.988 283.15 241.736 282.777 241.544 282.353C241.363 281.92 241.272 281.456 241.272 280.962C241.272 280.468 241.363 280.01 241.544 279.586C241.736 279.153 241.988 278.775 242.3 278.452C242.623 278.13 242.991 277.878 243.404 277.696C243.828 277.505 244.276 277.409 244.75 277.409C245.224 277.409 245.667 277.505 246.08 277.696C246.504 277.878 246.872 278.13 247.184 278.452C247.507 278.775 247.759 279.153 247.94 279.586C248.132 280.01 248.228 280.468 248.228 280.962ZM250.262 275.822H251.774V277.485H253.286V279.072H251.774V281.945C251.774 282.248 251.859 282.489 252.031 282.671C252.212 282.842 252.454 282.928 252.756 282.928C252.837 282.928 252.903 282.928 252.953 282.928C253.003 282.918 253.049 282.908 253.089 282.898C253.129 282.888 253.17 282.873 253.21 282.852V284.364C253.139 284.395 253.059 284.42 252.968 284.44C252.797 284.49 252.6 284.516 252.378 284.516C252.036 284.516 251.718 284.46 251.426 284.349C251.144 284.228 250.897 284.057 250.685 283.835C250.483 283.613 250.322 283.351 250.201 283.049C250.09 282.747 250.035 282.404 250.035 282.021V279.072H248.976V277.636H249.43C249.984 277.636 250.262 277.359 250.262 276.804V275.822ZM256.457 284.44H254.718V274.914H256.457V284.44ZM259.475 280.962C259.475 281.537 259.641 281.996 259.974 282.338C260.306 282.681 260.72 282.852 261.214 282.852C261.708 282.852 262.121 282.681 262.453 282.338C262.786 281.996 262.952 281.537 262.952 280.962C262.952 280.388 262.786 279.929 262.453 279.586C262.121 279.244 261.708 279.072 261.214 279.072C260.72 279.072 260.306 279.244 259.974 279.586C259.641 279.929 259.475 280.388 259.475 280.962ZM264.691 280.962C264.691 281.456 264.595 281.92 264.404 282.353C264.222 282.777 263.97 283.15 263.648 283.472C263.335 283.795 262.968 284.052 262.544 284.243C262.131 284.425 261.687 284.516 261.214 284.516C260.74 284.516 260.291 284.425 259.868 284.243C259.455 284.052 259.087 283.795 258.764 283.472C258.452 283.15 258.2 282.777 258.008 282.353C257.827 281.92 257.736 281.456 257.736 280.962C257.736 280.468 257.827 280.01 258.008 279.586C258.2 279.153 258.452 278.775 258.764 278.452C259.087 278.13 259.455 277.878 259.868 277.696C260.291 277.505 260.74 277.409 261.214 277.409C261.687 277.409 262.131 277.505 262.544 277.696C262.968 277.878 263.335 278.13 263.648 278.452C263.97 278.775 264.222 279.153 264.404 279.586C264.595 280.01 264.691 280.468 264.691 280.962ZM272.32 281.87C272.239 282.212 272.103 282.545 271.911 282.867C271.72 283.18 271.483 283.462 271.201 283.714C270.919 283.956 270.596 284.153 270.233 284.304C269.87 284.445 269.482 284.516 269.069 284.516C268.595 284.516 268.147 284.425 267.723 284.243C267.31 284.052 266.942 283.795 266.619 283.472C266.307 283.15 266.055 282.777 265.863 282.353C265.682 281.92 265.591 281.456 265.591 280.962C265.591 280.468 265.682 280.01 265.863 279.586C266.055 279.153 266.307 278.775 266.619 278.452C266.942 278.13 267.31 277.878 267.723 277.696C268.147 277.505 268.595 277.409 269.069 277.409C269.482 277.409 269.87 277.485 270.233 277.636C270.596 277.777 270.919 277.974 271.201 278.226C271.483 278.468 271.72 278.75 271.911 279.072C272.103 279.385 272.239 279.712 272.32 280.055H270.581C270.5 279.874 270.389 279.712 270.248 279.571C270.127 279.45 269.971 279.339 269.78 279.239C269.588 279.128 269.351 279.072 269.069 279.072C268.575 279.072 268.162 279.244 267.829 279.586C267.496 279.929 267.33 280.388 267.33 280.962C267.33 281.537 267.496 281.996 267.829 282.338C268.162 282.681 268.575 282.852 269.069 282.852C269.351 282.852 269.588 282.802 269.78 282.701C269.971 282.6 270.127 282.489 270.248 282.369C270.389 282.227 270.5 282.061 270.581 281.87H272.32ZM277.687 284.44L275.268 281.265V284.44H273.529V274.914H275.268V280.358L277.385 277.485H279.35L276.856 280.811L279.653 284.44H277.687ZM286.388 282.323C286.297 282.585 286.156 282.847 285.964 283.109C285.783 283.371 285.556 283.608 285.284 283.82C285.022 284.022 284.72 284.188 284.377 284.319C284.044 284.45 283.681 284.516 283.288 284.516C282.814 284.516 282.366 284.425 281.943 284.243C281.529 284.052 281.161 283.795 280.839 283.472C280.526 283.15 280.274 282.777 280.083 282.353C279.901 281.92 279.811 281.456 279.811 280.962C279.811 280.468 279.901 280.01 280.083 279.586C280.274 279.153 280.526 278.775 280.839 278.452C281.161 278.13 281.529 277.878 281.943 277.696C282.366 277.505 282.814 277.409 283.288 277.409C283.742 277.409 284.17 277.495 284.573 277.666C284.977 277.838 285.329 278.079 285.632 278.392C285.934 278.704 286.171 279.082 286.342 279.526C286.524 279.959 286.615 280.438 286.615 280.962C286.615 281.043 286.61 281.124 286.599 281.204C286.589 281.275 286.579 281.345 286.569 281.416C286.559 281.497 286.549 281.572 286.539 281.643H281.701C281.781 281.985 281.953 282.273 282.215 282.505C282.477 282.736 282.835 282.852 283.288 282.852C283.52 282.852 283.712 282.827 283.863 282.777C284.024 282.726 284.16 282.666 284.271 282.595C284.392 282.515 284.493 282.424 284.573 282.323H286.388ZM283.288 279.072C282.835 279.072 282.462 279.203 282.169 279.465C281.887 279.728 281.706 280.05 281.625 280.433H284.951C284.871 280.05 284.684 279.728 284.392 279.465C284.11 279.203 283.742 279.072 283.288 279.072ZM291.147 277.409C291.228 277.409 291.298 277.414 291.359 277.424C291.419 277.434 291.475 277.444 291.525 277.455C291.575 277.465 291.626 277.475 291.676 277.485V279.299C291.626 279.289 291.57 279.279 291.51 279.269C291.46 279.259 291.394 279.249 291.313 279.239C291.243 279.229 291.162 279.224 291.071 279.224C290.648 279.224 290.3 279.365 290.028 279.647C289.766 279.919 289.635 280.282 289.635 280.736V284.44H287.896V277.485H289.181L289.484 278.241C289.605 278.09 289.751 277.953 289.922 277.833C290.063 277.722 290.235 277.626 290.436 277.545C290.648 277.455 290.885 277.409 291.147 277.409ZM297.192 284.44H295.302L298.855 274.914H300.518L304.072 284.44H302.182L301.501 282.474H297.872L297.192 284.44ZM300.896 280.811L299.687 277.334L298.477 280.811H300.896ZM310.351 274.914V281.492C310.351 281.945 310.276 282.358 310.124 282.731C309.983 283.104 309.777 283.422 309.504 283.684C309.242 283.946 308.92 284.153 308.537 284.304C308.154 284.445 307.725 284.516 307.252 284.516C306.778 284.516 306.349 284.445 305.966 284.304C305.583 284.153 305.256 283.946 304.984 283.684C304.722 283.422 304.515 283.104 304.364 282.731C304.223 282.358 304.152 281.945 304.152 281.492H305.966C305.966 281.875 306.082 282.187 306.314 282.429C306.556 282.661 306.869 282.777 307.252 282.777C307.635 282.777 307.942 282.661 308.174 282.429C308.416 282.187 308.537 281.875 308.537 281.492V274.914H310.351ZM315.422 274.914V284.44H313.607V277.258L312.473 278.014L311.566 276.653L314.061 274.914H315.422Z" fill="#747792"/>
<path d="M332.322 274.914V284.44H330.508V277.258L329.374 278.014L328.467 276.653L330.961 274.914H332.322ZM340.26 282.701V284.44H333.909V283.155L337.387 279.526C337.578 279.334 337.755 279.138 337.916 278.936C338.047 278.765 338.168 278.573 338.279 278.362C338.39 278.14 338.445 277.923 338.445 277.712C338.445 277.329 338.329 277.031 338.097 276.819C337.876 276.608 337.538 276.502 337.084 276.502C336.631 276.502 336.278 276.623 336.026 276.865C335.774 277.107 335.648 277.439 335.648 277.863H333.834C333.834 277.429 333.909 277.031 334.06 276.668C334.222 276.295 334.443 275.973 334.726 275.701C335.008 275.428 335.346 275.217 335.739 275.066C336.142 274.914 336.59 274.839 337.084 274.839C337.598 274.839 338.052 274.909 338.445 275.05C338.848 275.192 339.191 275.388 339.473 275.64C339.756 275.892 339.967 276.189 340.108 276.532C340.26 276.875 340.335 277.243 340.335 277.636C340.335 277.999 340.244 278.357 340.063 278.709C339.882 279.052 339.68 279.365 339.458 279.647C339.196 279.98 338.909 280.292 338.596 280.584L336.555 282.701H340.26ZM343.357 279.677C343.357 280.191 343.418 280.64 343.539 281.023C343.66 281.406 343.816 281.728 344.008 281.991C344.209 282.253 344.436 282.449 344.688 282.58C344.95 282.711 345.212 282.777 345.474 282.777C345.736 282.777 345.993 282.711 346.245 282.58C346.507 282.449 346.734 282.253 346.926 281.991C347.127 281.728 347.289 281.406 347.41 281.023C347.531 280.64 347.591 280.191 347.591 279.677C347.591 279.163 347.531 278.715 347.41 278.331C347.289 277.948 347.127 277.626 346.926 277.364C346.734 277.102 346.507 276.905 346.245 276.774C345.993 276.643 345.736 276.578 345.474 276.578C345.212 276.578 344.95 276.643 344.688 276.774C344.436 276.905 344.209 277.102 344.008 277.364C343.816 277.626 343.66 277.948 343.539 278.331C343.418 278.715 343.357 279.163 343.357 279.677ZM349.405 279.677C349.405 280.433 349.3 281.114 349.088 281.718C348.876 282.313 348.589 282.817 348.226 283.23C347.873 283.644 347.455 283.961 346.971 284.183C346.497 284.405 345.998 284.516 345.474 284.516C344.94 284.516 344.436 284.405 343.962 284.183C343.488 283.961 343.07 283.644 342.707 283.23C342.354 282.817 342.072 282.313 341.861 281.718C341.649 281.114 341.543 280.433 341.543 279.677C341.543 278.921 341.649 278.246 341.861 277.651C342.072 277.046 342.354 276.537 342.707 276.124C343.07 275.711 343.488 275.393 343.962 275.171C344.436 274.95 344.94 274.839 345.474 274.839C345.998 274.839 346.497 274.95 346.971 275.171C347.455 275.393 347.873 275.711 348.226 276.124C348.589 276.537 348.876 277.046 349.088 277.651C349.3 278.246 349.405 278.921 349.405 279.677Z" fill="#747792"/>
<path d="M212.747 287.492H198.572C197.955 287.5 197.36 287.262 196.917 286.832C196.474 286.402 196.22 285.813 196.21 285.196V273.724C196.22 273.106 196.474 272.518 196.917 272.088C197.36 271.657 197.955 271.42 198.572 271.427H202.919C203.059 271.428 203.197 271.46 203.323 271.521C203.448 271.581 203.559 271.669 203.647 271.777L206.104 274.782H212.719C213.027 274.775 213.334 274.828 213.621 274.94C213.908 275.051 214.171 275.219 214.393 275.432C214.615 275.646 214.793 275.901 214.916 276.184C215.039 276.466 215.105 276.77 215.11 277.078V285.196C215.1 285.813 214.846 286.402 214.403 286.832C213.96 287.262 213.365 287.5 212.747 287.492V287.492Z" fill="#747792"/>
<path d="M401.68 274.6H398.08V273.398C398.063 272.937 397.864 272.501 397.527 272.187C397.189 271.872 396.741 271.705 396.28 271.72H394.12C393.659 271.705 393.211 271.872 392.873 272.187C392.536 272.501 392.337 272.937 392.32 273.398V274.6H388.72C388.529 274.6 388.346 274.676 388.211 274.811C388.076 274.946 388 275.129 388 275.32C388 275.511 388.076 275.694 388.211 275.829C388.346 275.964 388.529 276.04 388.72 276.04H389.44V283.96C389.44 284.533 389.668 285.082 390.073 285.487C390.478 285.893 391.027 286.12 391.6 286.12H398.8C399.373 286.12 399.922 285.893 400.327 285.487C400.732 285.082 400.96 284.533 400.96 283.96V276.04H401.68C401.871 276.04 402.054 275.964 402.189 275.829C402.324 275.694 402.4 275.511 402.4 275.32C402.4 275.129 402.324 274.946 402.189 274.811C402.054 274.676 401.871 274.6 401.68 274.6ZM393.76 273.398C393.76 273.283 393.911 273.16 394.12 273.16H396.28C396.489 273.16 396.64 273.283 396.64 273.398V274.6H393.76V273.398Z" fill="#FF3156"/>
</g>
<g filter="url(#filter3_d)">
<rect x="184" y="313" width="228" height="50" rx="4" fill="#171B3E"/>
<path d="M233.59 334.79V336.96H237.02V338.57H233.59V342H231.91V333.18H237.79V334.79H233.59ZM239.811 338.78C239.811 339.312 239.965 339.737 240.273 340.054C240.581 340.371 240.964 340.53 241.421 340.53C241.879 340.53 242.261 340.371 242.569 340.054C242.877 339.737 243.031 339.312 243.031 338.78C243.031 338.248 242.877 337.823 242.569 337.506C242.261 337.189 241.879 337.03 241.421 337.03C240.964 337.03 240.581 337.189 240.273 337.506C239.965 337.823 239.811 338.248 239.811 338.78ZM244.641 338.78C244.641 339.237 244.553 339.667 244.375 340.068C244.207 340.46 243.974 340.805 243.675 341.104C243.386 341.403 243.045 341.641 242.653 341.818C242.271 341.986 241.86 342.07 241.421 342.07C240.983 342.07 240.567 341.986 240.175 341.818C239.793 341.641 239.452 341.403 239.153 341.104C238.864 340.805 238.631 340.46 238.453 340.068C238.285 339.667 238.201 339.237 238.201 338.78C238.201 338.323 238.285 337.898 238.453 337.506C238.631 337.105 238.864 336.755 239.153 336.456C239.452 336.157 239.793 335.924 240.175 335.756C240.567 335.579 240.983 335.49 241.421 335.49C241.86 335.49 242.271 335.579 242.653 335.756C243.045 335.924 243.386 336.157 243.675 336.456C243.974 336.755 244.207 337.105 244.375 337.506C244.553 337.898 244.641 338.323 244.641 338.78ZM247.085 338.78C247.085 339.312 247.239 339.737 247.547 340.054C247.855 340.371 248.237 340.53 248.695 340.53C249.152 340.53 249.535 340.371 249.843 340.054C250.151 339.737 250.305 339.312 250.305 338.78C250.305 338.248 250.151 337.823 249.843 337.506C249.535 337.189 249.152 337.03 248.695 337.03C248.237 337.03 247.855 337.189 247.547 337.506C247.239 337.823 247.085 338.248 247.085 338.78ZM251.915 338.78C251.915 339.237 251.826 339.667 251.649 340.068C251.481 340.46 251.247 340.805 250.949 341.104C250.659 341.403 250.319 341.641 249.927 341.818C249.544 341.986 249.133 342.07 248.695 342.07C248.256 342.07 247.841 341.986 247.449 341.818C247.066 341.641 246.725 341.403 246.427 341.104C246.137 340.805 245.904 340.46 245.727 340.068C245.559 339.667 245.475 339.237 245.475 338.78C245.475 338.323 245.559 337.898 245.727 337.506C245.904 337.105 246.137 336.755 246.427 336.456C246.725 336.157 247.066 335.924 247.449 335.756C247.841 335.579 248.256 335.49 248.695 335.49C249.133 335.49 249.544 335.579 249.927 335.756C250.319 335.924 250.659 336.157 250.949 336.456C251.247 336.755 251.481 337.105 251.649 337.506C251.826 337.898 251.915 338.323 251.915 338.78ZM253.798 334.02H255.198V335.56H256.598V337.03H255.198V339.69C255.198 339.97 255.277 340.194 255.436 340.362C255.604 340.521 255.828 340.6 256.108 340.6C256.183 340.6 256.243 340.6 256.29 340.6C256.337 340.591 256.379 340.581 256.416 340.572C256.453 340.563 256.491 340.549 256.528 340.53V341.93C256.463 341.958 256.388 341.981 256.304 342C256.145 342.047 255.963 342.07 255.758 342.07C255.441 342.07 255.147 342.019 254.876 341.916C254.615 341.804 254.386 341.645 254.19 341.44C254.003 341.235 253.854 340.992 253.742 340.712C253.639 340.432 253.588 340.115 253.588 339.76V337.03H252.608V335.7H253.028C253.541 335.7 253.798 335.443 253.798 334.93V334.02ZM259.534 342H257.924V333.18H259.534V342ZM262.329 338.78C262.329 339.312 262.483 339.737 262.791 340.054C263.099 340.371 263.481 340.53 263.939 340.53C264.396 340.53 264.779 340.371 265.087 340.054C265.395 339.737 265.549 339.312 265.549 338.78C265.549 338.248 265.395 337.823 265.087 337.506C264.779 337.189 264.396 337.03 263.939 337.03C263.481 337.03 263.099 337.189 262.791 337.506C262.483 337.823 262.329 338.248 262.329 338.78ZM267.159 338.78C267.159 339.237 267.07 339.667 266.893 340.068C266.725 340.46 266.491 340.805 266.193 341.104C265.903 341.403 265.563 341.641 265.171 341.818C264.788 341.986 264.377 342.07 263.939 342.07C263.5 342.07 263.085 341.986 262.693 341.818C262.31 341.641 261.969 341.403 261.671 341.104C261.381 340.805 261.148 340.46 260.971 340.068C260.803 339.667 260.719 339.237 260.719 338.78C260.719 338.323 260.803 337.898 260.971 337.506C261.148 337.105 261.381 336.755 261.671 336.456C261.969 336.157 262.31 335.924 262.693 335.756C263.085 335.579 263.5 335.49 263.939 335.49C264.377 335.49 264.788 335.579 265.171 335.756C265.563 335.924 265.903 336.157 266.193 336.456C266.491 336.755 266.725 337.105 266.893 337.506C267.07 337.898 267.159 338.323 267.159 338.78ZM274.222 339.62C274.148 339.937 274.022 340.245 273.844 340.544C273.667 340.833 273.448 341.095 273.186 341.328C272.925 341.552 272.626 341.734 272.29 341.874C271.954 342.005 271.595 342.07 271.212 342.07C270.774 342.07 270.358 341.986 269.966 341.818C269.584 341.641 269.243 341.403 268.944 341.104C268.655 340.805 268.422 340.46 268.244 340.068C268.076 339.667 267.992 339.237 267.992 338.78C267.992 338.323 268.076 337.898 268.244 337.506C268.422 337.105 268.655 336.755 268.944 336.456C269.243 336.157 269.584 335.924 269.966 335.756C270.358 335.579 270.774 335.49 271.212 335.49C271.595 335.49 271.954 335.56 272.29 335.7C272.626 335.831 272.925 336.013 273.186 336.246C273.448 336.47 273.667 336.731 273.844 337.03C274.022 337.319 274.148 337.623 274.222 337.94H272.612C272.538 337.772 272.435 337.623 272.304 337.492C272.192 337.38 272.048 337.277 271.87 337.184C271.693 337.081 271.474 337.03 271.212 337.03C270.755 337.03 270.372 337.189 270.064 337.506C269.756 337.823 269.602 338.248 269.602 338.78C269.602 339.312 269.756 339.737 270.064 340.054C270.372 340.371 270.755 340.53 271.212 340.53C271.474 340.53 271.693 340.483 271.87 340.39C272.048 340.297 272.192 340.194 272.304 340.082C272.435 339.951 272.538 339.797 272.612 339.62H274.222ZM279.192 342L276.952 339.06V342H275.342V333.18H276.952V338.22L278.912 335.56H280.732L278.422 338.64L281.012 342H279.192ZM287.248 340.04C287.164 340.283 287.034 340.525 286.856 340.768C286.688 341.011 286.478 341.23 286.226 341.426C285.984 341.613 285.704 341.767 285.386 341.888C285.078 342.009 284.742 342.07 284.378 342.07C283.94 342.07 283.524 341.986 283.132 341.818C282.75 341.641 282.409 341.403 282.11 341.104C281.821 340.805 281.588 340.46 281.41 340.068C281.242 339.667 281.158 339.237 281.158 338.78C281.158 338.323 281.242 337.898 281.41 337.506C281.588 337.105 281.821 336.755 282.11 336.456C282.409 336.157 282.75 335.924 283.132 335.756C283.524 335.579 283.94 335.49 284.378 335.49C284.798 335.49 285.195 335.569 285.568 335.728C285.942 335.887 286.268 336.111 286.548 336.4C286.828 336.689 287.048 337.039 287.206 337.45C287.374 337.851 287.458 338.295 287.458 338.78C287.458 338.855 287.454 338.929 287.444 339.004C287.435 339.069 287.426 339.135 287.416 339.2C287.407 339.275 287.398 339.345 287.388 339.41H282.908C282.983 339.727 283.142 339.993 283.384 340.208C283.627 340.423 283.958 340.53 284.378 340.53C284.593 340.53 284.77 340.507 284.91 340.46C285.06 340.413 285.186 340.357 285.288 340.292C285.4 340.217 285.494 340.133 285.568 340.04H287.248ZM284.378 337.03C283.958 337.03 283.613 337.151 283.342 337.394C283.081 337.637 282.913 337.935 282.838 338.29H285.918C285.844 337.935 285.671 337.637 285.4 337.394C285.139 337.151 284.798 337.03 284.378 337.03ZM291.655 335.49C291.73 335.49 291.795 335.495 291.851 335.504C291.907 335.513 291.958 335.523 292.005 335.532C292.052 335.541 292.098 335.551 292.145 335.56V337.24C292.098 337.231 292.047 337.221 291.991 337.212C291.944 337.203 291.884 337.193 291.809 337.184C291.744 337.175 291.669 337.17 291.585 337.17C291.193 337.17 290.871 337.301 290.619 337.562C290.376 337.814 290.255 338.15 290.255 338.57V342H288.645V335.56H289.835L290.115 336.26C290.227 336.12 290.362 335.994 290.521 335.882C290.652 335.779 290.81 335.691 290.997 335.616C291.193 335.532 291.412 335.49 291.655 335.49ZM297.252 342H295.502L298.792 333.18H300.332L303.622 342H301.872L301.242 340.18H297.882L297.252 342ZM300.682 338.64L299.562 335.42L298.442 338.64H300.682ZM309.437 333.18V339.27C309.437 339.69 309.367 340.073 309.227 340.418C309.096 340.763 308.905 341.057 308.653 341.3C308.41 341.543 308.111 341.734 307.757 341.874C307.402 342.005 307.005 342.07 306.567 342.07C306.128 342.07 305.731 342.005 305.377 341.874C305.022 341.734 304.719 341.543 304.467 341.3C304.224 341.057 304.033 340.763 303.893 340.418C303.762 340.073 303.697 339.69 303.697 339.27H305.377C305.377 339.625 305.484 339.914 305.699 340.138C305.923 340.353 306.212 340.46 306.567 340.46C306.921 340.46 307.206 340.353 307.421 340.138C307.645 339.914 307.757 339.625 307.757 339.27V333.18H309.437ZM314.132 333.18V342H312.452V335.35L311.402 336.05L310.562 334.79L312.872 333.18H314.132Z" fill="#747792"/>
<path d="M329.78 333.18V342H328.1V335.35L327.05 336.05L326.21 334.79L328.52 333.18H329.78ZM337.129 340.39V342H331.249V340.81L334.469 337.45C334.647 337.273 334.81 337.091 334.959 336.904C335.081 336.745 335.193 336.568 335.295 336.372C335.398 336.167 335.449 335.966 335.449 335.77C335.449 335.415 335.342 335.14 335.127 334.944C334.922 334.748 334.609 334.65 334.189 334.65C333.769 334.65 333.443 334.762 333.209 334.986C332.976 335.21 332.859 335.518 332.859 335.91H331.179C331.179 335.509 331.249 335.14 331.389 334.804C331.539 334.459 331.744 334.16 332.005 333.908C332.267 333.656 332.579 333.46 332.943 333.32C333.317 333.18 333.732 333.11 334.189 333.11C334.665 333.11 335.085 333.175 335.449 333.306C335.823 333.437 336.14 333.619 336.401 333.852C336.663 334.085 336.859 334.361 336.989 334.678C337.129 334.995 337.199 335.336 337.199 335.7C337.199 336.036 337.115 336.367 336.947 336.694C336.779 337.011 336.593 337.301 336.387 337.562C336.145 337.87 335.879 338.159 335.589 338.43L333.699 340.39H337.129ZM339.998 337.59C339.998 338.066 340.054 338.481 340.166 338.836C340.278 339.191 340.422 339.489 340.6 339.732C340.786 339.975 340.996 340.157 341.23 340.278C341.472 340.399 341.715 340.46 341.958 340.46C342.2 340.46 342.438 340.399 342.672 340.278C342.914 340.157 343.124 339.975 343.302 339.732C343.488 339.489 343.638 339.191 343.75 338.836C343.862 338.481 343.918 338.066 343.918 337.59C343.918 337.114 343.862 336.699 343.75 336.344C343.638 335.989 343.488 335.691 343.302 335.448C343.124 335.205 342.914 335.023 342.672 334.902C342.438 334.781 342.2 334.72 341.958 334.72C341.715 334.72 341.472 334.781 341.23 334.902C340.996 335.023 340.786 335.205 340.6 335.448C340.422 335.691 340.278 335.989 340.166 336.344C340.054 336.699 339.998 337.114 339.998 337.59ZM345.598 337.59C345.598 338.29 345.5 338.92 345.304 339.48C345.108 340.031 344.842 340.497 344.506 340.88C344.179 341.263 343.792 341.557 343.344 341.762C342.905 341.967 342.443 342.07 341.958 342.07C341.463 342.07 340.996 341.967 340.558 341.762C340.119 341.557 339.732 341.263 339.396 340.88C339.069 340.497 338.808 340.031 338.612 339.48C338.416 338.92 338.318 338.29 338.318 337.59C338.318 336.89 338.416 336.265 338.612 335.714C338.808 335.154 339.069 334.683 339.396 334.3C339.732 333.917 340.119 333.623 340.558 333.418C340.996 333.213 341.463 333.11 341.958 333.11C342.443 333.11 342.905 333.213 343.344 333.418C343.792 333.623 344.179 333.917 344.506 334.3C344.842 334.683 345.108 335.154 345.304 335.714C345.5 336.265 345.598 336.89 345.598 337.59Z" fill="#747792"/>
<path d="M219.062 344.938H205.938C205.366 344.945 204.815 344.725 204.405 344.326C203.995 343.928 203.759 343.383 203.75 342.811V332.189C203.759 331.617 203.995 331.072 204.405 330.674C204.815 330.275 205.366 330.056 205.938 330.063H209.963C210.092 330.063 210.219 330.093 210.336 330.149C210.452 330.205 210.555 330.286 210.636 330.386L212.911 333.169H219.036C219.322 333.162 219.605 333.211 219.871 333.315C220.137 333.418 220.38 333.573 220.586 333.771C220.792 333.968 220.957 334.205 221.071 334.466C221.184 334.728 221.245 335.01 221.25 335.295V342.811C221.241 343.383 221.005 343.928 220.595 344.326C220.185 344.725 219.634 344.945 219.062 344.938V344.938Z" fill="#747792"/>
<path d="M394 333H390.667V331.887C390.651 331.46 390.467 331.057 390.155 330.766C389.842 330.474 389.427 330.319 389 330.333H387C386.573 330.319 386.158 330.474 385.846 330.766C385.533 331.057 385.349 331.46 385.333 331.887V333H382C381.823 333 381.654 333.07 381.529 333.195C381.404 333.32 381.333 333.49 381.333 333.667C381.333 333.843 381.404 334.013 381.529 334.138C381.654 334.263 381.823 334.333 382 334.333H382.667V341.667C382.667 342.197 382.878 342.706 383.253 343.081C383.628 343.456 384.136 343.667 384.667 343.667H391.333C391.864 343.667 392.373 343.456 392.748 343.081C393.123 342.706 393.333 342.197 393.333 341.667V334.333H394C394.177 334.333 394.347 334.263 394.472 334.138C394.597 334.013 394.667 333.843 394.667 333.667C394.667 333.49 394.597 333.32 394.472 333.195C394.347 333.07 394.177 333 394 333ZM386.667 331.887C386.667 331.78 386.807 331.667 387 331.667H389C389.193 331.667 389.333 331.78 389.333 331.887V333H386.667V331.887Z" fill="#FF3156"/>
</g>
<g filter="url(#filter4_d)">
<rect x="194" y="369" width="208" height="45.614" rx="3.64912" fill="#171B3E"/>
<path d="M239.24 388.844V390.823H242.369V392.292H239.24V395.421H237.707V387.375H243.071V388.844H239.24ZM244.915 392.484C244.915 392.969 245.056 393.356 245.337 393.646C245.618 393.935 245.967 394.08 246.384 394.08C246.801 394.08 247.15 393.935 247.431 393.646C247.712 393.356 247.853 392.969 247.853 392.484C247.853 391.998 247.712 391.611 247.431 391.321C247.15 391.032 246.801 390.887 246.384 390.887C245.967 390.887 245.618 391.032 245.337 391.321C245.056 391.611 244.915 391.998 244.915 392.484ZM249.322 392.484C249.322 392.901 249.241 393.292 249.079 393.659C248.926 394.016 248.713 394.331 248.44 394.604C248.176 394.876 247.866 395.093 247.508 395.255C247.159 395.408 246.784 395.485 246.384 395.485C245.984 395.485 245.605 395.408 245.247 395.255C244.898 395.093 244.587 394.876 244.315 394.604C244.051 394.331 243.838 394.016 243.676 393.659C243.523 393.292 243.447 392.901 243.447 392.484C243.447 392.066 243.523 391.679 243.676 391.321C243.838 390.955 244.051 390.636 244.315 390.363C244.587 390.091 244.898 389.878 245.247 389.725C245.605 389.563 245.984 389.482 246.384 389.482C246.784 389.482 247.159 389.563 247.508 389.725C247.866 389.878 248.176 390.091 248.44 390.363C248.713 390.636 248.926 390.955 249.079 391.321C249.241 391.679 249.322 392.066 249.322 392.484ZM251.551 392.484C251.551 392.969 251.691 393.356 251.972 393.646C252.253 393.935 252.602 394.08 253.019 394.08C253.437 394.08 253.786 393.935 254.067 393.646C254.348 393.356 254.488 392.969 254.488 392.484C254.488 391.998 254.348 391.611 254.067 391.321C253.786 391.032 253.437 390.887 253.019 390.887C252.602 390.887 252.253 391.032 251.972 391.321C251.691 391.611 251.551 391.998 251.551 392.484ZM255.957 392.484C255.957 392.901 255.876 393.292 255.714 393.659C255.561 394.016 255.348 394.331 255.076 394.604C254.812 394.876 254.501 395.093 254.143 395.255C253.794 395.408 253.42 395.485 253.019 395.485C252.619 395.485 252.24 395.408 251.883 395.255C251.534 395.093 251.223 394.876 250.95 394.604C250.686 394.331 250.474 394.016 250.312 393.659C250.159 393.292 250.082 392.901 250.082 392.484C250.082 392.066 250.159 391.679 250.312 391.321C250.474 390.955 250.686 390.636 250.95 390.363C251.223 390.091 251.534 389.878 251.883 389.725C252.24 389.563 252.619 389.482 253.019 389.482C253.42 389.482 253.794 389.563 254.143 389.725C254.501 389.878 254.812 390.091 255.076 390.363C255.348 390.636 255.561 390.955 255.714 391.321C255.876 391.679 255.957 392.066 255.957 392.484ZM257.675 388.141H258.952V389.546H260.23V390.887H258.952V393.314C258.952 393.569 259.025 393.774 259.17 393.927C259.323 394.072 259.527 394.144 259.783 394.144C259.851 394.144 259.906 394.144 259.949 394.144C259.991 394.135 260.03 394.127 260.064 394.118C260.098 394.11 260.132 394.097 260.166 394.08V395.357C260.106 395.383 260.038 395.404 259.961 395.421C259.817 395.464 259.651 395.485 259.463 395.485C259.174 395.485 258.906 395.438 258.659 395.345C258.42 395.242 258.212 395.098 258.033 394.91C257.863 394.723 257.726 394.502 257.624 394.246C257.53 393.991 257.484 393.701 257.484 393.378V390.887H256.59V389.674H256.973C257.441 389.674 257.675 389.44 257.675 388.971V388.141ZM262.908 395.421H261.439V387.375H262.908V395.421ZM265.458 392.484C265.458 392.969 265.598 393.356 265.879 393.646C266.16 393.935 266.509 394.08 266.926 394.08C267.344 394.08 267.693 393.935 267.974 393.646C268.255 393.356 268.395 392.969 268.395 392.484C268.395 391.998 268.255 391.611 267.974 391.321C267.693 391.032 267.344 390.887 266.926 390.887C266.509 390.887 266.16 391.032 265.879 391.321C265.598 391.611 265.458 391.998 265.458 392.484ZM269.864 392.484C269.864 392.901 269.783 393.292 269.621 393.659C269.468 394.016 269.255 394.331 268.983 394.604C268.719 394.876 268.408 395.093 268.05 395.255C267.701 395.408 267.327 395.485 266.926 395.485C266.526 395.485 266.147 395.408 265.79 395.255C265.441 395.093 265.13 394.876 264.857 394.604C264.593 394.331 264.381 394.016 264.219 393.659C264.065 393.292 263.989 392.901 263.989 392.484C263.989 392.066 264.065 391.679 264.219 391.321C264.381 390.955 264.593 390.636 264.857 390.363C265.13 390.091 265.441 389.878 265.79 389.725C266.147 389.563 266.526 389.482 266.926 389.482C267.327 389.482 267.701 389.563 268.05 389.725C268.408 389.878 268.719 390.091 268.983 390.363C269.255 390.636 269.468 390.955 269.621 391.321C269.783 391.679 269.864 392.066 269.864 392.484ZM276.308 393.25C276.24 393.539 276.125 393.82 275.963 394.093C275.801 394.357 275.601 394.595 275.363 394.808C275.124 395.012 274.852 395.178 274.545 395.306C274.239 395.425 273.911 395.485 273.562 395.485C273.162 395.485 272.783 395.408 272.425 395.255C272.076 395.093 271.765 394.876 271.493 394.604C271.229 394.331 271.016 394.016 270.854 393.659C270.701 393.292 270.624 392.901 270.624 392.484C270.624 392.066 270.701 391.679 270.854 391.321C271.016 390.955 271.229 390.636 271.493 390.363C271.765 390.091 272.076 389.878 272.425 389.725C272.783 389.563 273.162 389.482 273.562 389.482C273.911 389.482 274.239 389.546 274.545 389.674C274.852 389.793 275.124 389.959 275.363 390.172C275.601 390.376 275.801 390.615 275.963 390.887C276.125 391.151 276.24 391.428 276.308 391.717H274.839C274.771 391.564 274.677 391.428 274.558 391.309C274.456 391.206 274.324 391.113 274.162 391.028C274 390.934 273.8 390.887 273.562 390.887C273.145 390.887 272.796 391.032 272.515 391.321C272.234 391.611 272.093 391.998 272.093 392.484C272.093 392.969 272.234 393.356 272.515 393.646C272.796 393.935 273.145 394.08 273.562 394.08C273.8 394.08 274 394.038 274.162 393.952C274.324 393.867 274.456 393.774 274.558 393.671C274.677 393.552 274.771 393.412 274.839 393.25H276.308ZM280.842 395.421L278.798 392.739V395.421H277.33V387.375H278.798V391.973L280.586 389.546H282.247L280.139 392.356L282.502 395.421H280.842ZM288.191 393.633C288.115 393.854 287.995 394.076 287.834 394.297C287.68 394.519 287.489 394.719 287.259 394.897C287.037 395.068 286.782 395.208 286.493 395.319C286.212 395.43 285.905 395.485 285.573 395.485C285.173 395.485 284.794 395.408 284.436 395.255C284.087 395.093 283.776 394.876 283.504 394.604C283.24 394.331 283.027 394.016 282.865 393.659C282.712 393.292 282.635 392.901 282.635 392.484C282.635 392.066 282.712 391.679 282.865 391.321C283.027 390.955 283.24 390.636 283.504 390.363C283.776 390.091 284.087 389.878 284.436 389.725C284.794 389.563 285.173 389.482 285.573 389.482C285.956 389.482 286.318 389.555 286.659 389.699C286.999 389.844 287.297 390.048 287.553 390.312C287.808 390.576 288.008 390.896 288.153 391.27C288.306 391.636 288.383 392.041 288.383 392.484C288.383 392.552 288.378 392.62 288.37 392.688C288.361 392.748 288.353 392.807 288.344 392.867C288.336 392.935 288.327 392.999 288.319 393.058H284.232C284.3 393.348 284.445 393.59 284.666 393.786C284.888 393.982 285.19 394.08 285.573 394.08C285.769 394.08 285.931 394.059 286.058 394.016C286.194 393.974 286.309 393.923 286.403 393.863C286.505 393.795 286.59 393.718 286.659 393.633H288.191ZM285.573 390.887C285.19 390.887 284.875 390.998 284.628 391.219C284.389 391.441 284.236 391.713 284.168 392.037H286.978C286.91 391.713 286.752 391.441 286.505 391.219C286.267 390.998 285.956 390.887 285.573 390.887ZM292.211 389.482C292.279 389.482 292.339 389.486 292.39 389.495C292.441 389.503 292.488 389.512 292.531 389.521C292.573 389.529 292.616 389.538 292.658 389.546V391.079C292.616 391.07 292.569 391.062 292.518 391.053C292.475 391.045 292.42 391.036 292.352 391.028C292.292 391.019 292.224 391.015 292.147 391.015C291.79 391.015 291.496 391.134 291.266 391.372C291.045 391.602 290.934 391.909 290.934 392.292V395.421H289.465V389.546H290.551L290.806 390.185C290.909 390.057 291.032 389.942 291.177 389.84C291.296 389.746 291.441 389.665 291.611 389.597C291.79 389.521 291.99 389.482 292.211 389.482ZM297.318 395.421H295.721L298.723 387.375H300.127L303.129 395.421H301.532L300.958 393.761H297.892L297.318 395.421ZM300.447 392.356L299.425 389.418L298.403 392.356H300.447ZM308.433 387.375V392.931C308.433 393.314 308.369 393.663 308.242 393.978C308.122 394.293 307.948 394.561 307.718 394.783C307.497 395.004 307.224 395.178 306.901 395.306C306.577 395.425 306.215 395.485 305.815 395.485C305.415 395.485 305.053 395.425 304.729 395.306C304.406 395.178 304.129 395.004 303.899 394.783C303.678 394.561 303.503 394.293 303.376 393.978C303.256 393.663 303.197 393.314 303.197 392.931H304.729C304.729 393.254 304.827 393.518 305.023 393.722C305.227 393.918 305.491 394.016 305.815 394.016C306.138 394.016 306.398 393.918 306.594 393.722C306.798 393.518 306.901 393.254 306.901 392.931V387.375H308.433ZM312.716 387.375V395.421H311.184V389.354L310.226 389.993L309.459 388.844L311.567 387.375H312.716Z" fill="#747792"/>
<path d="M326.992 387.375V395.421H325.46V389.354L324.502 389.993L323.736 388.844L325.843 387.375H326.992ZM333.697 393.952V395.421H328.333V394.336L331.27 391.27C331.432 391.108 331.581 390.942 331.717 390.772C331.828 390.627 331.93 390.466 332.024 390.287C332.118 390.1 332.164 389.916 332.164 389.738C332.164 389.414 332.067 389.163 331.871 388.984C331.683 388.805 331.398 388.716 331.015 388.716C330.632 388.716 330.334 388.818 330.121 389.022C329.908 389.227 329.802 389.508 329.802 389.865H328.269C328.269 389.499 328.333 389.163 328.461 388.856C328.597 388.541 328.784 388.269 329.023 388.039C329.261 387.809 329.546 387.63 329.878 387.503C330.219 387.375 330.598 387.311 331.015 387.311C331.449 387.311 331.832 387.371 332.164 387.49C332.505 387.609 332.795 387.775 333.033 387.988C333.271 388.201 333.45 388.452 333.569 388.741C333.697 389.031 333.761 389.342 333.761 389.674C333.761 389.98 333.684 390.283 333.531 390.581C333.378 390.87 333.208 391.134 333.02 391.372C332.799 391.653 332.556 391.917 332.292 392.164L330.568 393.952H333.697ZM336.314 391.398C336.314 391.832 336.365 392.211 336.467 392.535C336.569 392.858 336.701 393.131 336.863 393.352C337.033 393.573 337.225 393.74 337.438 393.85C337.659 393.961 337.881 394.016 338.102 394.016C338.323 394.016 338.54 393.961 338.753 393.85C338.975 393.74 339.166 393.573 339.328 393.352C339.498 393.131 339.635 392.858 339.737 392.535C339.839 392.211 339.89 391.832 339.89 391.398C339.89 390.964 339.839 390.585 339.737 390.261C339.635 389.938 339.498 389.665 339.328 389.444C339.166 389.222 338.975 389.056 338.753 388.946C338.54 388.835 338.323 388.78 338.102 388.78C337.881 388.78 337.659 388.835 337.438 388.946C337.225 389.056 337.033 389.222 336.863 389.444C336.701 389.665 336.569 389.938 336.467 390.261C336.365 390.585 336.314 390.964 336.314 391.398ZM341.423 391.398C341.423 392.037 341.333 392.611 341.154 393.122C340.976 393.625 340.733 394.05 340.426 394.399C340.128 394.748 339.775 395.017 339.366 395.204C338.966 395.391 338.545 395.485 338.102 395.485C337.651 395.485 337.225 395.391 336.825 395.204C336.425 395.017 336.071 394.748 335.765 394.399C335.467 394.05 335.228 393.625 335.049 393.122C334.871 392.611 334.781 392.037 334.781 391.398C334.781 390.759 334.871 390.189 335.049 389.687C335.228 389.176 335.467 388.746 335.765 388.397C336.071 388.047 336.425 387.779 336.825 387.592C337.225 387.405 337.651 387.311 338.102 387.311C338.545 387.311 338.966 387.405 339.366 387.592C339.775 387.779 340.128 388.047 340.426 388.397C340.733 388.746 340.976 389.176 341.154 389.687C341.333 390.189 341.423 390.759 341.423 391.398Z" fill="#747792"/>
<path d="M225.987 398.136H214.013C213.492 398.143 212.989 397.942 212.615 397.578C212.241 397.215 212.026 396.718 212.018 396.196V386.506C212.026 385.984 212.241 385.487 212.615 385.124C212.989 384.76 213.492 384.56 214.013 384.566H217.685C217.803 384.567 217.919 384.594 218.026 384.645C218.132 384.696 218.225 384.77 218.3 384.861L220.375 387.4H225.963C226.223 387.393 226.482 387.439 226.725 387.533C226.967 387.627 227.189 387.768 227.377 387.949C227.565 388.129 227.715 388.345 227.819 388.584C227.923 388.822 227.978 389.079 227.982 389.339V396.196C227.974 396.718 227.759 397.215 227.385 397.578C227.011 397.942 226.508 398.143 225.987 398.136V398.136Z" fill="#747792"/>
<path d="M385.579 387.246H382.538V386.23C382.524 385.841 382.356 385.473 382.071 385.207C381.786 384.942 381.407 384.8 381.018 384.813H379.193C378.804 384.8 378.425 384.942 378.14 385.207C377.855 385.473 377.687 385.841 377.673 386.23V387.246H374.632C374.47 387.246 374.316 387.31 374.202 387.424C374.088 387.538 374.023 387.693 374.023 387.854C374.023 388.015 374.088 388.17 374.202 388.284C374.316 388.398 374.47 388.462 374.632 388.462H375.24V395.152C375.24 395.636 375.432 396.1 375.774 396.442C376.116 396.784 376.58 396.977 377.064 396.977H383.146C383.63 396.977 384.094 396.784 384.436 396.442C384.779 396.1 384.971 395.636 384.971 395.152V388.462H385.579C385.74 388.462 385.895 388.398 386.009 388.284C386.123 388.17 386.187 388.015 386.187 387.854C386.187 387.693 386.123 387.538 386.009 387.424C385.895 387.31 385.74 387.246 385.579 387.246ZM378.889 386.23C378.889 386.133 379.017 386.029 379.193 386.029H381.018C381.194 386.029 381.322 386.133 381.322 386.23V387.246H378.889V386.23Z" fill="#FF3156"/>
</g>
<rect x="154.632" y="133.632" width="286.737" height="46.7368" rx="4.42105" stroke="#282D54" stroke-width="1.26316" stroke-dasharray="6.32 7.58"/>
<path d="M266.396 151.017V162.158H264.539L259.587 154.907V162.158H257.465V151.017H259.322L264.274 158.267V151.017H266.396ZM275.764 159.682C275.658 159.989 275.493 160.295 275.269 160.602C275.057 160.908 274.792 161.185 274.473 161.433C274.167 161.669 273.813 161.863 273.412 162.016C273.023 162.17 272.599 162.246 272.139 162.246C271.585 162.246 271.06 162.14 270.565 161.928C270.082 161.704 269.652 161.403 269.274 161.026C268.909 160.649 268.614 160.213 268.39 159.717C268.178 159.21 268.072 158.668 268.072 158.09C268.072 157.513 268.178 156.976 268.39 156.481C268.614 155.974 268.909 155.532 269.274 155.155C269.652 154.778 270.082 154.483 270.565 154.271C271.06 154.047 271.585 153.935 272.139 153.935C272.67 153.935 273.171 154.035 273.642 154.235C274.114 154.436 274.527 154.719 274.88 155.084C275.234 155.45 275.511 155.892 275.711 156.41C275.924 156.917 276.03 157.477 276.03 158.09C276.03 158.185 276.024 158.279 276.012 158.373C276 158.456 275.988 158.538 275.977 158.621C275.965 158.715 275.953 158.804 275.941 158.886H270.282C270.377 159.287 270.577 159.623 270.884 159.894C271.19 160.165 271.609 160.301 272.139 160.301C272.41 160.301 272.634 160.272 272.811 160.213C273 160.154 273.159 160.083 273.289 160C273.43 159.906 273.548 159.8 273.642 159.682H275.764ZM272.139 155.88C271.609 155.88 271.172 156.033 270.831 156.34C270.5 156.646 270.288 157.024 270.194 157.472H274.084C273.99 157.024 273.772 156.646 273.43 156.34C273.1 156.033 272.67 155.88 272.139 155.88ZM282.569 157.295L281.066 162.158H279.297L276.644 154.023H278.678L280.27 159.24L281.95 154.023H283.188L284.868 159.24L286.459 154.023H288.493L285.84 162.158H284.072L282.569 157.295ZM294.405 152.078H296.173V154.023H297.942V155.88H296.173V159.24C296.173 159.594 296.273 159.877 296.474 160.089C296.686 160.289 296.969 160.389 297.323 160.389C297.417 160.389 297.494 160.389 297.552 160.389C297.611 160.378 297.664 160.366 297.712 160.354C297.759 160.342 297.806 160.325 297.853 160.301V162.069C297.771 162.105 297.676 162.134 297.57 162.158C297.37 162.217 297.14 162.246 296.88 162.246C296.48 162.246 296.108 162.181 295.766 162.052C295.436 161.91 295.147 161.71 294.9 161.45C294.664 161.191 294.475 160.885 294.334 160.531C294.204 160.177 294.139 159.776 294.139 159.328V155.88H292.902V154.2H293.432C294.08 154.2 294.405 153.876 294.405 153.227V152.078ZM302.804 153.935C303.264 153.935 303.688 154.017 304.077 154.182C304.466 154.336 304.802 154.554 305.085 154.837C305.368 155.12 305.586 155.456 305.74 155.845C305.905 156.234 305.987 156.658 305.987 157.118V162.158H304.484L304.13 161.362C303.942 161.527 303.735 161.674 303.511 161.804C303.311 161.922 303.069 162.028 302.786 162.122C302.503 162.205 302.185 162.246 301.831 162.246C300.947 162.246 300.269 162.034 299.798 161.61C299.326 161.173 299.09 160.619 299.09 159.947C299.09 159.546 299.167 159.181 299.32 158.851C299.485 158.509 299.756 158.22 300.134 157.984C300.511 157.737 301.006 157.548 301.619 157.418C302.244 157.277 303.022 157.206 303.953 157.206C303.953 156.758 303.83 156.41 303.582 156.163C303.346 155.915 303.028 155.792 302.627 155.792C302.356 155.792 302.138 155.839 301.973 155.933C301.82 156.027 301.696 156.128 301.601 156.234C301.495 156.363 301.425 156.511 301.389 156.676H299.356C299.403 156.298 299.509 155.945 299.674 155.615C299.851 155.285 300.087 154.996 300.381 154.748C300.676 154.501 301.024 154.306 301.425 154.165C301.837 154.011 302.297 153.935 302.804 153.935ZM302.185 160.655C302.716 160.655 303.14 160.501 303.458 160.195C303.788 159.877 303.953 159.47 303.953 158.975V158.621C303.352 158.621 302.869 158.65 302.503 158.709C302.138 158.757 301.849 158.833 301.637 158.939C301.436 159.034 301.301 159.152 301.23 159.293C301.159 159.434 301.124 159.594 301.124 159.77C301.124 159.994 301.224 160.201 301.425 160.389C301.625 160.566 301.879 160.655 302.185 160.655ZM309.34 159.594C309.387 159.865 309.517 160.095 309.729 160.283C309.941 160.472 310.224 160.566 310.578 160.566C310.932 160.566 311.209 160.478 311.409 160.301C311.621 160.112 311.728 159.906 311.728 159.682C311.728 159.493 311.621 159.346 311.409 159.24C311.209 159.134 310.955 159.04 310.649 158.957C310.342 158.863 310.006 158.768 309.641 158.674C309.287 158.58 308.957 158.444 308.651 158.267C308.344 158.079 308.085 157.843 307.872 157.56C307.672 157.265 307.572 156.882 307.572 156.41C307.572 156.08 307.637 155.768 307.766 155.473C307.908 155.167 308.108 154.901 308.368 154.677C308.627 154.453 308.933 154.277 309.287 154.147C309.641 154.005 310.042 153.935 310.49 153.935C311.468 153.935 312.217 154.17 312.736 154.642C313.266 155.114 313.579 155.703 313.673 156.41H311.728C311.68 156.234 311.551 156.057 311.339 155.88C311.138 155.703 310.885 155.615 310.578 155.615C310.272 155.615 310.03 155.691 309.853 155.845C309.688 155.998 309.605 156.186 309.605 156.41C309.605 156.599 309.706 156.746 309.906 156.853C310.118 156.959 310.378 157.059 310.684 157.153C310.991 157.236 311.321 157.33 311.675 157.436C312.04 157.53 312.376 157.672 312.683 157.861C312.989 158.049 313.243 158.297 313.443 158.603C313.655 158.898 313.761 159.287 313.761 159.77C313.761 160.101 313.691 160.419 313.549 160.725C313.408 161.02 313.207 161.28 312.948 161.504C312.688 161.728 312.37 161.91 311.993 162.052C311.627 162.181 311.215 162.246 310.755 162.246C309.694 162.246 308.886 162.005 308.332 161.521C307.79 161.038 307.477 160.395 307.395 159.594H309.34ZM320.126 162.158L317.297 158.444V162.158H315.263V151.017H317.297V157.383L319.773 154.023H322.071L319.154 157.914L322.425 162.158H320.126ZM330.468 153.935C330.822 153.935 331.14 153.982 331.423 154.076C331.706 154.17 331.948 154.271 332.148 154.377C332.372 154.506 332.578 154.654 332.767 154.819L333.121 154.023H334.624V161.627C334.624 162.688 334.282 163.543 333.598 164.192C332.926 164.84 331.971 165.164 330.733 165.164C329.979 165.164 329.366 165.029 328.894 164.757C328.434 164.486 328.069 164.18 327.798 163.838C327.491 163.449 327.261 163.007 327.108 162.512H329.142C329.224 162.665 329.336 162.8 329.478 162.918C329.607 163.013 329.772 163.101 329.973 163.184C330.173 163.266 330.427 163.307 330.733 163.307C331.311 163.307 331.765 163.148 332.095 162.83C332.425 162.523 332.59 162.122 332.59 161.627V161.008C332.425 161.173 332.236 161.321 332.024 161.45C331.836 161.568 331.612 161.674 331.352 161.769C331.093 161.851 330.798 161.893 330.468 161.893C329.961 161.893 329.478 161.792 329.018 161.592C328.57 161.392 328.175 161.114 327.833 160.761C327.503 160.407 327.238 159.989 327.037 159.505C326.849 159.022 326.754 158.491 326.754 157.914C326.754 157.336 326.849 156.805 327.037 156.322C327.238 155.839 327.503 155.42 327.833 155.066C328.175 154.713 328.57 154.436 329.018 154.235C329.478 154.035 329.961 153.935 330.468 153.935ZM328.788 157.914C328.788 158.197 328.835 158.462 328.929 158.709C329.036 158.957 329.177 159.175 329.354 159.364C329.531 159.541 329.737 159.682 329.973 159.788C330.209 159.894 330.462 159.947 330.733 159.947C330.993 159.947 331.24 159.894 331.476 159.788C331.712 159.682 331.918 159.541 332.095 159.364C332.272 159.175 332.413 158.957 332.519 158.709C332.625 158.462 332.679 158.197 332.679 157.914C332.679 157.631 332.625 157.365 332.519 157.118C332.413 156.87 332.272 156.658 332.095 156.481C331.918 156.293 331.712 156.145 331.476 156.039C331.24 155.933 330.993 155.88 330.733 155.88C330.462 155.88 330.209 155.933 329.973 156.039C329.737 156.145 329.531 156.293 329.354 156.481C329.177 156.658 329.036 156.87 328.929 157.118C328.835 157.365 328.788 157.631 328.788 157.914ZM340.376 153.935C340.47 153.935 340.553 153.941 340.624 153.952C340.694 153.964 340.759 153.976 340.818 153.988C340.877 154 340.936 154.011 340.995 154.023V156.145C340.936 156.133 340.871 156.122 340.8 156.11C340.741 156.098 340.665 156.086 340.571 156.074C340.488 156.063 340.394 156.057 340.288 156.057C339.792 156.057 339.386 156.222 339.067 156.552C338.761 156.87 338.608 157.295 338.608 157.825V162.158H336.574V154.023H338.077L338.431 154.907C338.572 154.73 338.743 154.571 338.944 154.43C339.109 154.3 339.309 154.188 339.545 154.094C339.792 153.988 340.069 153.935 340.376 153.935ZM343.83 158.09C343.83 158.762 344.024 159.299 344.414 159.7C344.803 160.101 345.286 160.301 345.864 160.301C346.441 160.301 346.925 160.101 347.314 159.7C347.703 159.299 347.897 158.762 347.897 158.09C347.897 157.418 347.703 156.882 347.314 156.481C346.925 156.08 346.441 155.88 345.864 155.88C345.286 155.88 344.803 156.08 344.414 156.481C344.024 156.882 343.83 157.418 343.83 158.09ZM349.931 158.09C349.931 158.668 349.819 159.21 349.595 159.717C349.383 160.213 349.088 160.649 348.711 161.026C348.345 161.403 347.915 161.704 347.42 161.928C346.936 162.14 346.418 162.246 345.864 162.246C345.31 162.246 344.785 162.14 344.29 161.928C343.806 161.704 343.376 161.403 342.999 161.026C342.633 160.649 342.339 160.213 342.115 159.717C341.902 159.21 341.796 158.668 341.796 158.09C341.796 157.513 341.902 156.976 342.115 156.481C342.339 155.974 342.633 155.532 342.999 155.155C343.376 154.778 343.806 154.483 344.29 154.271C344.785 154.047 345.31 153.935 345.864 153.935C346.418 153.935 346.936 154.047 347.42 154.271C347.915 154.483 348.345 154.778 348.711 155.155C349.088 155.532 349.383 155.974 349.595 156.481C349.819 156.976 349.931 157.513 349.931 158.09ZM354.697 162.246C354.214 162.246 353.772 162.17 353.371 162.016C352.97 161.851 352.623 161.621 352.328 161.327C352.045 161.02 351.821 160.655 351.656 160.23C351.503 159.806 351.426 159.328 351.426 158.798V154.023H353.46V158.533C353.46 159.063 353.613 159.493 353.919 159.824C354.238 160.142 354.644 160.301 355.14 160.301C355.635 160.301 356.036 160.142 356.342 159.824C356.66 159.493 356.82 159.063 356.82 158.533V154.023H358.853V162.158H357.35L356.996 161.362C356.796 161.527 356.578 161.674 356.342 161.804C356.142 161.922 355.9 162.028 355.617 162.122C355.334 162.205 355.028 162.246 354.697 162.246ZM364.959 153.935C365.466 153.935 365.949 154.041 366.409 154.253C366.869 154.453 367.27 154.742 367.612 155.12C367.965 155.485 368.243 155.921 368.443 156.428C368.655 156.935 368.761 157.489 368.761 158.09C368.761 158.692 368.655 159.246 368.443 159.753C368.243 160.26 367.965 160.702 367.612 161.079C367.27 161.445 366.869 161.733 366.409 161.946C365.949 162.146 365.466 162.246 364.959 162.246C364.617 162.246 364.317 162.205 364.057 162.122C363.81 162.04 363.592 161.952 363.403 161.857C363.191 161.739 363.002 161.604 362.837 161.45V164.987H360.803V154.023H362.307L362.66 154.819C362.837 154.654 363.043 154.506 363.279 154.377C363.48 154.271 363.721 154.17 364.004 154.076C364.287 153.982 364.605 153.935 364.959 153.935ZM362.66 158.09C362.66 158.762 362.855 159.299 363.244 159.7C363.633 160.101 364.116 160.301 364.694 160.301C365.272 160.301 365.755 160.101 366.144 159.7C366.533 159.299 366.728 158.762 366.728 158.09C366.728 157.418 366.533 156.882 366.144 156.481C365.755 156.08 365.272 155.88 364.694 155.88C364.116 155.88 363.633 156.08 363.244 156.481C362.855 156.882 362.66 157.418 362.66 158.09Z" fill="#747792"/>
<path d="M244.473 152.31H237.842L235.35 149.298C235.262 149.189 235.151 149.101 235.025 149.041C234.899 148.98 234.761 148.948 234.621 148.947H230.263C229.644 148.94 229.047 149.178 228.603 149.609C228.159 150.041 227.905 150.63 227.895 151.249V162.75C227.905 163.369 228.159 163.959 228.603 164.391C229.047 164.822 229.644 165.06 230.263 165.052H244.473C245.092 165.06 245.689 164.822 246.133 164.391C246.577 163.959 246.832 163.369 246.842 162.75V154.612C246.832 153.993 246.577 153.404 246.133 152.972C245.689 152.541 245.092 152.303 244.473 152.31V152.31ZM239.263 159.842H238.316V160.789C238.316 161.041 238.216 161.282 238.038 161.459C237.86 161.637 237.619 161.737 237.368 161.737C237.117 161.737 236.876 161.637 236.698 161.459C236.521 161.282 236.421 161.041 236.421 160.789V159.842H235.473C235.222 159.842 234.981 159.742 234.804 159.564C234.626 159.387 234.526 159.146 234.526 158.895C234.526 158.643 234.626 158.402 234.804 158.225C234.981 158.047 235.222 157.947 235.473 157.947H236.421V157C236.421 156.749 236.521 156.508 236.698 156.33C236.876 156.152 237.117 156.052 237.368 156.052C237.619 156.052 237.86 156.152 238.038 156.33C238.216 156.508 238.316 156.749 238.316 157V157.947H239.263C239.514 157.947 239.755 158.047 239.933 158.225C240.111 158.402 240.21 158.643 240.21 158.895C240.21 159.146 240.111 159.387 239.933 159.564C239.755 159.742 239.514 159.842 239.263 159.842Z" fill="#747792"/>
<defs>
<filter id="filter0_d" x="205" y="86" width="295" height="333" filterUnits="userSpaceOnUse" color-interpolation-filters="sRGB">
<feFlood flood-opacity="0" result="BackgroundImageFix"/>
<feColorMatrix in="SourceAlpha" type="matrix" values="0 0 0 0 0 0 0 0 0 0 0 0 0 0 0 0 0 0 127 0" result="hardAlpha"/>
<feOffset dy="10"/>
<feGaussianBlur stdDeviation="16.5"/>
<feComposite in2="hardAlpha" operator="out"/>
<feColorMatrix type="matrix" values="0 0 0 0 0 0 0 0 0 0 0 0 0 0 0 0 0 0 0.25 0"/>
<feBlend mode="normal" in2="BackgroundImageFix" result="effect1_dropShadow"/>
<feBlend mode="normal" in="SourceGraphic" in2="effect1_dropShadow" result="shape"/>
</filter>
<filter id="filter1_d" x="119.2" y="159.4" width="357.6" height="144" filterUnits="userSpaceOnUse" color-interpolation-filters="sRGB">
<feFlood flood-opacity="0" result="BackgroundImageFix"/>
<feColorMatrix in="SourceAlpha" type="matrix" values="0 0 0 0 0 0 0 0 0 0 0 0 0 0 0 0 0 0 127 0" result="hardAlpha"/>
<feOffset dy="14.4"/>
<feGaussianBlur stdDeviation="21"/>
<feComposite in2="hardAlpha" operator="out"/>
<feColorMatrix type="matrix" values="0 0 0 0 0 0 0 0 0 0 0 0 0 0 0 0 0 0 0.16 0"/>
<feBlend mode="normal" in2="BackgroundImageFix" result="effect1_dropShadow"/>
<feBlend mode="normal" in="SourceGraphic" in2="effect1_dropShadow" result="shape"/>
</filter>
<filter id="filter2_d" x="137.08" y="228.16" width="321.84" height="129.6" filterUnits="userSpaceOnUse" color-interpolation-filters="sRGB">
<feFlood flood-opacity="0" result="BackgroundImageFix"/>
<feColorMatrix in="SourceAlpha" type="matrix" values="0 0 0 0 0 0 0 0 0 0 0 0 0 0 0 0 0 0 127 0" result="hardAlpha"/>
<feOffset dy="12.96"/>
<feGaussianBlur stdDeviation="18.9"/>
<feComposite in2="hardAlpha" operator="out"/>
<feColorMatrix type="matrix" values="0 0 0 0 0 0 0 0 0 0 0 0 0 0 0 0 0 0 0.16 0"/>
<feBlend mode="normal" in2="BackgroundImageFix" result="effect1_dropShadow"/>
<feBlend mode="normal" in="SourceGraphic" in2="effect1_dropShadow" result="shape"/>
</filter>
<filter id="filter3_d" x="149" y="290" width="298" height="120" filterUnits="userSpaceOnUse" color-interpolation-filters="sRGB">
<feFlood flood-opacity="0" result="BackgroundImageFix"/>
<feColorMatrix in="SourceAlpha" type="matrix" values="0 0 0 0 0 0 0 0 0 0 0 0 0 0 0 0 0 0 127 0" result="hardAlpha"/>
<feOffset dy="12"/>
<feGaussianBlur stdDeviation="17.5"/>
<feComposite in2="hardAlpha" operator="out"/>
<feColorMatrix type="matrix" values="0 0 0 0 0 0 0 0 0 0 0 0 0 0 0 0 0 0 0.16 0"/>
<feBlend mode="normal" in2="BackgroundImageFix" result="effect1_dropShadow"/>
<feBlend mode="normal" in="SourceGraphic" in2="effect1_dropShadow" result="shape"/>
</filter>
<filter id="filter4_d" x="162.07" y="348.018" width="271.86" height="109.474" filterUnits="userSpaceOnUse" color-interpolation-filters="sRGB">
<feFlood flood-opacity="0" result="BackgroundImageFix"/>
<feColorMatrix in="SourceAlpha" type="matrix" values="0 0 0 0 0 0 0 0 0 0 0 0 0 0 0 0 0 0 127 0" result="hardAlpha"/>
<feOffset dy="10.9474"/>
<feGaussianBlur stdDeviation="15.9649"/>
<feComposite in2="hardAlpha" operator="out"/>
<feColorMatrix type="matrix" values="0 0 0 0 0 0 0 0 0 0 0 0 0 0 0 0 0 0 0.16 0"/>
<feBlend mode="normal" in2="BackgroundImageFix" result="effect1_dropShadow"/>
<feBlend mode="normal" in="SourceGraphic" in2="effect1_dropShadow" result="shape"/>
</filter>
<radialGradient id="paint0_radial" cx="0" cy="0" r="1" gradientUnits="userSpaceOnUse" gradientTransform="translate(269 243) rotate(90) scale(243 269)">
<stop stop-color="#DB5FFF" stop-opacity="0.17"/>
<stop offset="1" stop-color="#DB5FFF" stop-opacity="0"/>
</radialGradient>
<radialGradient id="paint1_radial" cx="0" cy="0" r="1" gradientUnits="userSpaceOnUse" gradientTransform="translate(386 320) rotate(90) scale(206 228)">
<stop stop-color="#FF3156" stop-opacity="0.13"/>
<stop offset="1" stop-color="#FF3156" stop-opacity="0"/>
</radialGradient>
<linearGradient id="paint2_linear" x1="256" y1="272" x2="256" y2="436" gradientUnits="userSpaceOnUse">
<stop stop-color="#48EDFF"/>
<stop offset="1" stop-color="#0E91FF"/>
</linearGradient>
<linearGradient id="paint3_linear" x1="298" y1="187" x2="298" y2="247" gradientUnits="userSpaceOnUse">
<stop stop-color="#8E4AFF"/>
<stop offset="1" stop-color="#8E4AFF" stop-opacity="0"/>
</linearGradient>
<linearGradient id="paint4_linear" x1="195.4" y1="207.475" x2="195.4" y2="225.325" gradientUnits="userSpaceOnUse">
<stop stop-color="#DB5FFF"/>
<stop offset="1" stop-color="#8E4AFF"/>
</linearGradient>
</defs>
</svg>
