<svg width="32" height="32" viewBox="0 0 32 32" fill="none" xmlns="http://www.w3.org/2000/svg">
<path d="M30.9621 13.8423L28.8088 11.3406C28.3971 10.8656 28.0646 9.97896 28.0646 9.34563V6.65396C28.0646 4.97563 26.6871 3.59813 25.0088 3.59813H22.3171C21.6996 3.59813 20.7971 3.26563 20.3221 2.85396L17.8204 0.700625C16.7279 -0.233542 14.9388 -0.233542 13.8304 0.700625L11.3446 2.86979C10.8696 3.26563 9.96708 3.59813 9.34958 3.59813H6.61042C4.93208 3.59813 3.55458 4.97563 3.55458 6.65396V9.36146C3.55458 9.97896 3.22208 10.8656 2.82625 11.3406L0.68875 13.8581C-0.229583 14.9506 -0.229583 16.724 0.68875 17.8165L2.82625 20.334C3.22208 20.809 3.55458 21.6956 3.55458 22.3131V25.0206C3.55458 26.699 4.93208 28.0765 6.61042 28.0765H9.34958C9.96708 28.0765 10.8696 28.409 11.3446 28.8206L13.8463 30.974C14.9388 31.9081 16.7279 31.9081 17.8363 30.974L20.3379 28.8206C20.8129 28.409 21.6996 28.0765 22.3329 28.0765H25.0246C26.7029 28.0765 28.0804 26.699 28.0804 25.0206V22.329C28.0804 21.7115 28.4129 20.809 28.8246 20.334L30.9779 17.8323C31.8963 16.7398 31.8963 14.9348 30.9621 13.8423ZM23.2354 15.8373L21.3829 21.474C21.1454 22.4081 20.1479 23.1681 19.1346 23.1681H16.2054C15.6988 23.1681 14.9863 22.994 14.6696 22.6773L12.3421 20.8565C12.2946 21.8698 11.8354 22.2973 10.7113 22.2973H9.95125C8.77958 22.2973 8.30458 21.8381 8.30458 20.7298V13.1615C8.30458 12.0531 8.77958 11.594 9.95125 11.594H10.7271C11.8988 11.594 12.3738 12.0531 12.3738 13.1615V13.7315L15.4454 9.17146C15.7621 8.68063 16.5696 8.33229 17.2504 8.60146C17.9946 8.85479 18.4696 9.67813 18.3113 10.4065L17.9313 12.8765C17.8996 13.0981 17.9471 13.304 18.0896 13.4623C18.2163 13.6048 18.4063 13.6998 18.6121 13.6998H21.6996C22.3013 13.6998 22.8079 13.9373 23.1088 14.3648C23.3779 14.7765 23.4254 15.299 23.2354 15.8373Z" fill="url(#paint0_linear)"/>
<defs>
<linearGradient id="paint0_linear" x1="15.8324" y1="0" x2="15.8324" y2="31.6746" gradientUnits="userSpaceOnUse">
<stop stop-color="#FE867E"/>
<stop offset="1" stop-color="#FF395B"/>
</linearGradient>
</defs>
</svg>
