<svg width="26" height="22" viewBox="0 0 26 22" fill="none" xmlns="http://www.w3.org/2000/svg">
<path d="M26 2.50087C25.0331 2.925 24.0029 3.20612 22.9287 3.34262C24.0337 2.68287 24.8771 1.64612 25.2736 0.3965C24.2434 1.01075 23.1059 1.44463 21.8936 1.68675C20.9154 0.645125 19.5211 0 18.0001 0C15.0491 0 12.6734 2.39525 12.6734 5.33162C12.6734 5.75412 12.7091 6.16037 12.7969 6.54712C8.3655 6.331 4.44437 4.20713 1.81025 0.97175C1.35037 1.76963 1.08063 2.68288 1.08063 3.666C1.08063 5.512 2.03125 7.14837 3.44825 8.09575C2.59188 8.0795 1.75175 7.83087 1.04 7.43925C1.04 7.4555 1.04 7.47662 1.04 7.49775C1.04 10.088 2.88762 12.2395 5.3105 12.7351C4.87662 12.8537 4.40375 12.9106 3.913 12.9106C3.57175 12.9106 3.22725 12.8911 2.90387 12.8196C3.5945 14.9305 5.55425 16.4824 7.8845 16.5327C6.071 17.9514 3.76838 18.8061 1.27562 18.8061C0.8385 18.8061 0.41925 18.7866 0 18.733C2.36112 20.2556 5.15937 21.125 8.177 21.125C17.9855 21.125 23.348 13 23.348 5.95725C23.348 5.72162 23.3399 5.49412 23.3285 5.26825C24.3864 4.5175 25.2752 3.57987 26 2.50087Z" fill="white"/>
</svg>
